<svg xmlns="http://www.w3.org/2000/svg" viewBox="0 0 1069.06 139.77"><defs><style>.cls-1{fill:#626270;}.cls-2{fill:#ec3237;}.cls-3{fill:#000017;}</style></defs><g id="Capa_2" data-name="Capa 2"><g id="Capa_1-2" data-name="Capa 1"><path class="cls-1" d="M1011.54,125.15a.93.93,0,0,0,0,.22h-10a1.6,1.6,0,0,1,0-.21,1.67,1.67,0,0,1,1.45-.47q3.6,0,7.2,0A1.69,1.69,0,0,1,1011.54,125.15Z"/><path class="cls-2" d="M70.77,0C80.38,0,90,0,99.6,0c12.19.06,24.15,1.53,35.59,6,14.09,5.5,25.42,14.42,33.09,27.58,5.38,9.24,7.1,19.32,6,29.9-2,18.74-10.83,33.92-24.56,46.43a111.68,111.68,0,0,1-54.29,27.54,124.09,124.09,0,0,1-24.32,2.31c-17.82,0-35.63-.57-53.44-1-3.77-.09-7.55-.11-11.32-.14-4.23,0-7-3.28-6.19-7.41C1.72,123.16,3.36,115.09,5,107c.18-.9.39-1.8.54-2.71a8.37,8.37,0,0,1,5.13-6.38A13.94,13.94,0,0,1,17,96.53c20.94.37,41.87.11,62.81,0,11.13,0,20.91-3.61,28.83-11.63a28.54,28.54,0,0,0,8.64-20.4c.06-8.73-5.57-16.16-14.42-19.33a36,36,0,0,0-11.75-2c-5.62-.08-11.24,0-16.85-.06-.78,0-1,.28-1.2,1-1.29,6.12-2.64,12.24-3.93,18.36-1.06,5-4.55,7.92-9.63,7.92-13.3,0-26.6-.1-39.9.06a6.41,6.41,0,0,1-6.36-7.77c4.08-18.41,8-36.88,11.94-55.32A9.25,9.25,0,0,1,34.43,0Z"/><path class="cls-3" d="M811.31,61.22l7.63-11.83c6.14-9.54,12.25-19.09,18.42-28.61a11.16,11.16,0,0,1,9.9-5.43q19.49,0,39,0c3.93,0,5.79,2.31,5,6.12q-6.4,31.4-12.78,62.79-3.42,16.86-6.87,33.71a7.22,7.22,0,0,1-7.17,5.78H837.7a4.62,4.62,0,0,1-4.81-5.82q4.14-20.53,8.34-41c.81-4,1.64-8,2.45-12a8.74,8.74,0,0,0,.06-.9c-.42.61-.69,1-.94,1.38q-16.23,24.94-32.47,49.88a11.85,11.85,0,0,1-10.78,5.85c-2.53-.06-5.09.25-7.35-1.37a6.87,6.87,0,0,1-3.05-4.23q-5.58-25.26-11.26-50.48a1.08,1.08,0,0,0-.42-.69q-1.11,5.34-2.2,10.69-4.38,21.48-8.74,43a7.21,7.21,0,0,1-7.07,5.74H732.6c-3.25,0-5.39-2.44-4.77-5.62,1.56-8,3.22-16,4.86-24.07q5.34-26.25,10.69-52.5,2.1-10.29,4.21-20.58a7.18,7.18,0,0,1,7-5.63h39.76a7.5,7.5,0,0,1,7.23,5.77q4.74,19.84,9.5,39.69C811.1,60.9,811.16,61,811.31,61.22Z"/><path class="cls-3" d="M499.49,57.05q-1,5.13-2.11,10.27-5.16,25.35-10.31,50.7a7.23,7.23,0,0,1-7.07,5.74H455.38a4.66,4.66,0,0,1-4.83-6q3.31-16.34,6.67-32.67,5.46-26.83,10.93-53.65c.71-3.52,1.39-7,2.14-10.56a7.25,7.25,0,0,1,6.93-5.57h48.2a7.18,7.18,0,0,1,7,5.75c4.14,20.51,8.28,41,12.62,61.56.43-2.09.87-4.17,1.29-6.25Q552,48.76,557.66,21.1a7.14,7.14,0,0,1,7.18-5.74h24.49a4.66,4.66,0,0,1,4.83,5.92q-7.73,37.89-15.42,75.79c-1.42,7-2.81,13.9-4.25,20.84a7.21,7.21,0,0,1-7.25,5.85h-47a7.26,7.26,0,0,1-7.42-6q-6.4-29.64-12.8-59.29c-.1-.47-.21-.93-.32-1.4Z"/><path class="cls-3" d="M1011.54,125.15h-10.1c-11.45-.43-22.58-2.32-32.85-7.71-9.29-4.87-16.52-11.78-20.43-21.72-2.7-6.86-3.11-14-2.19-21.22a61.23,61.23,0,0,1,14.92-33.7c9.58-10.8,21.52-17.94,35.2-22.29A106.88,106.88,0,0,1,1033.75,14a89.51,89.51,0,0,1,25.88,4.82,24.24,24.24,0,0,1,5.74,2.86,7.78,7.78,0,0,1,3.48,8.56c-1.62,8.07-3.29,16.12-4.94,24.18a6.07,6.07,0,0,1-.4,1.25c-.89,1.9-2.53,2.39-4.16,1.08a40.84,40.84,0,0,0-14.89-7.26c-10.51-2.88-21.14-3.82-31.84-1.16-5.83,1.44-11.18,4-15.31,8.48a24.7,24.7,0,0,0-6.6,21.92c.72,4.16,3.36,7.12,6.88,9.35a27.66,27.66,0,0,0,13.57,4.07,78.27,78.27,0,0,0,37.87-7,33.76,33.76,0,0,0,5.12-2.94A2.32,2.32,0,0,1,1057,82a2.25,2.25,0,0,1,.81,2.58c-1.65,8.2-3.29,16.4-5,24.58a11.58,11.58,0,0,1-6.34,8.1,62.53,62.53,0,0,1-14.61,5A101.88,101.88,0,0,1,1011.54,125.15Z"/><path class="cls-3" d="M395,54.54l10.15-16.16c3.67-5.86,7.37-11.71,11-17.6a10.6,10.6,0,0,1,9.79-5.45c11.76.09,23.53,0,35.29,0,1.25,0,2.74-.32,3.38,1.12s-.32,2.57-1.26,3.61q-18.75,20.65-37.49,41.33-7.52,8.29-15,16.56a3.66,3.66,0,0,0-.86,1.86q-3.85,19-7.71,38a7.21,7.21,0,0,1-7.3,6H363.21c-3.61,0-5.66-2.49-4.94-6q3.92-19.31,7.86-38.6a3.47,3.47,0,0,0-.31-2.5q-14.34-28-28.63-56.08a10.59,10.59,0,0,1-.56-1.18,2.78,2.78,0,0,1,1.92-3.81,6.19,6.19,0,0,1,2-.19h40.55c4.53,0,6.38,1.6,7.27,6.07C390.51,32.37,392.73,43.31,395,54.54Z"/><path class="cls-3" d="M926,15.36h16.06a4.7,4.7,0,0,1,4.85,5.94q-3.58,17.62-7.19,35.25-5.47,26.82-10.92,53.65c-.54,2.61-1,5.23-1.6,7.84a7.27,7.27,0,0,1-7,5.71q-16.12,0-32.26,0c-3.34,0-5.4-2.41-4.74-5.72,2-10.17,4.11-20.33,6.17-30.49l11.22-55.07c.78-3.81,1.54-7.63,2.35-11.44a7.17,7.17,0,0,1,7-5.68Z"/><path class="cls-3" d="M335.94,40.67C329.05,29,318.73,21.75,306,17.74c-8.8-2.76-17.87-3.46-27-3.3q-24.56.44-49.1.92A7.22,7.22,0,0,0,223.21,21q-2.53,12.29-5,24.57Q212.85,71.78,207.5,98c-1.34,6.56-2.69,13.12-4,19.68-.66,3.32,1.4,6,4.61,6,9.53,0,19,.43,30.22.63,5.8.23,13.26.22,20.72.27a97.66,97.66,0,0,0,14.3-.92A88.73,88.73,0,0,0,318.18,104c11.37-9.38,19.42-20.86,22.09-35.62C342,58.63,341,49.28,335.94,40.67ZM295,71.32c-2.7,9-9.17,14.33-17.7,17.48a29.56,29.56,0,0,1-8.48,1.68c-5.43.31-10.86.06-16.39.15,1.06-5.19,2.1-10.24,3.13-15.3,1.71-8.4,3.43-16.8,5.08-25.22.24-1.2.62-1.68,2-1.65,4.43.12,8.86,0,13.29.08a25.53,25.53,0,0,1,9.61,1.91C294,54,297.72,62.12,295,71.32Z"/><path class="cls-3" d="M717.36,118.16q-4-19.83-7.94-39.66Q703.69,49.93,698,21.33a7.12,7.12,0,0,0-7.36-6c-11.81,0-23.62,0-35.42,0a11.35,11.35,0,0,0-10.27,5.74Q617,66.2,589.14,111.35q-2.32,3.75-4.61,7.5a3.27,3.27,0,0,0-.29,3.58c.73,1.28,2,1.33,3.22,1.33h29.63a11.06,11.06,0,0,0,9.91-5.85c2.45-4.09,4.7-8.3,7-12.48a1.48,1.48,0,0,1,1.52-.9c3.08,0,6.15,0,9.22,0,8.78,0,17.56,0,26.34,0,1.19,0,1.52.38,1.65,1.46.49,3.87,1.07,7.72,1.6,11.59a6.81,6.81,0,0,0,7.06,6.19h15.41c5.31,0,10.62,0,15.93,0C716.13,123.73,718,121.43,717.36,118.16ZM668.22,78.84c-6.36,0-12.71,0-19.31,0l15.88-28.42.28.1q1.9,13.71,3.84,27.41C669,78.58,669,78.85,668.22,78.84Z"/></g></g></svg>