<svg xmlns="http://www.w3.org/2000/svg" viewBox="0 0 174.55 139.7"><defs><style>.cls-1{fill:#e73439;}</style></defs><g id="Capa_2" data-name="Capa 2"><g id="Capa_1-2" data-name="Capa 1"><path class="cls-1" d="M70.74,0h28.8c12.2.1,24.2,1.5,35.6,6,14.1,5.5,25.4,14.4,33.1,27.6,5.4,9.2,7.1,19.3,6,29.9-2,18.7-10.8,33.9-24.6,46.4a111.26,111.26,0,0,1-54.3,27.5A124.24,124.24,0,0,1,71,139.7c-17.8,0-35.6-.6-53.4-1-3.8-.1-7.6-.1-11.3-.1a6,6,0,0,1-6.2-7.4c1.6-8.1,3.2-16.1,4.8-24.2a25.58,25.58,0,0,0,.5-2.7,8.51,8.51,0,0,1,5.2-6.4,13.81,13.81,0,0,1,6.3-1.4c20.9.4,41.9.1,62.8,0,11.1,0,20.9-3.6,28.8-11.6a28.52,28.52,0,0,0,8.6-20.4c.1-8.7-5.6-16.2-14.4-19.3a36.1,36.1,0,0,0-11.8-2c-5.6-.1-11.2,0-16.8-.1-.8,0-1,.3-1.2,1-1.3,6.1-2.6,12.2-3.9,18.4-1.1,5-4.6,7.9-9.6,7.9-13.3,0-26.6-.1-39.9.1A6.38,6.38,0,0,1,13,64.2a7.57,7.57,0,0,1,.1-1.5c4.1-18.4,8-36.9,11.9-55.3A9.41,9.41,0,0,1,34.34,0Z"/></g></g></svg>