<svg xmlns="http://www.w3.org/2000/svg" viewBox="0 0 640 382.4"><defs><style>.cls-1{fill:#e0e0e0;}.cls-2{fill:#fafafa;}.cls-3{fill:#ebebeb;}.cls-4{fill:#f5f5f5;}.cls-5{fill:#263238;}.cls-6{fill:#b78876;}.cls-7{fill:#aa6550;}.cls-8{fill:#455a64;}.cls-9{fill:#e8505b;}.cls-10{opacity:0.4;}.cls-11{fill:#fff;}.cls-12{fill:#ffbe9d;}.cls-13{fill:#eb996e;}.cls-14,.cls-15{opacity:0.2;}.cls-16,.cls-17{opacity:0.3;}.cls-18{fill:#ffb29d;}.cls-19{fill:#e8947e;}.cls-20{opacity:0.5;}.cls-21{fill:#a3705d;}.cls-22{fill:#85503b;}</style></defs><g id="Capa_2" data-name="Capa 2"><g id="Background_Complete" data-name="Background Complete"><rect class="cls-1" x="101.61" y="2.75" width="96.36" height="63.36"/><rect class="cls-2" x="104.96" y="5.34" width="89.61" height="57.93"/><rect class="cls-1" x="135.15" y="26.46" width="29.23" height="15.94"/><rect class="cls-1" x="-2.74" y="72.43" width="69.56" height="45.73" transform="translate(-63.26 127.33) rotate(-90)"/><rect class="cls-2" x="-0.39" y="74.4" width="64.68" height="41.82" transform="translate(-63.36 127.26) rotate(-90)"/><rect class="cls-1" x="21.49" y="89.56" width="21.1" height="11.51" transform="translate(-63.28 127.35) rotate(-90)"/><rect class="cls-1" x="561.49" y="93.48" width="2.06" height="18.38"/><rect class="cls-1" x="629.19" y="93.48" width="2.06" height="18.38"/><rect class="cls-3" x="553.91" y="86.09" width="86.09" height="7.39"/><rect class="cls-4" x="611.12" y="30.77" width="11.87" height="55.32"/><path class="cls-1" d="M619.65,72.82a2.35,2.35,0,1,1-2.35-2.35A2.35,2.35,0,0,1,619.65,72.82Z"/><rect class="cls-1" x="615.38" y="45.43" width="3.63" height="22.61"/><rect class="cls-3" x="599.07" y="30.77" width="11.87" height="55.32"/><path class="cls-2" d="M607.59,72.82a2.35,2.35,0,1,1-2.35-2.35A2.35,2.35,0,0,1,607.59,72.82Z"/><rect class="cls-2" x="603.32" y="45.43" width="3.63" height="22.61"/><rect class="cls-1" x="587.58" y="30.77" width="11.87" height="55.32"/><path class="cls-2" d="M596.11,72.82a2.35,2.35,0,1,1-2.35-2.35A2.35,2.35,0,0,1,596.11,72.82Z"/><rect class="cls-2" x="591.84" y="45.43" width="3.63" height="22.61"/><polygon class="cls-1" points="572.91 85.25 587.17 36.58 582.25 34.43 567.62 83.48 572.91 85.25"/><path class="cls-4" d="M290.65,128.65a22.28,22.28,0,0,0,4.05-4.31c11.33,3,23.33,2.65,35,1.58a297.8,297.8,0,0,0,44.15-7.46c5,10,15.05,17.19,25.88,18.11a35.49,35.49,0,0,1-9.5-23,40.49,40.49,0,0,0,12.11-7.34c11.86-10.78,14.95-35.75,11.23-51.67-3.54-15.16-9.19-26.18-20.71-36.18S371.78,3.2,352.84,1.06a149.65,149.65,0,0,0-48.74,2.1C288,6.71,272.64,15.38,262.64,29c-11.27,15.28-14.87,36.34-9.37,54.72a61.32,61.32,0,0,0,22.27,31.51c1,8.75-3.37,16.52-9.68,23.93l7.47-1.76A41.1,41.1,0,0,0,290.65,128.65Z"/><path class="cls-4" d="M355.84,9.74l.52.12.58.12Z"/></g><g id="Character_4" data-name="Character 4"><path class="cls-5" d="M502,59.77a12.58,12.58,0,0,0-9.33-8c-4.2-.93-9.41-2.2-13.2-.18-2.37,1.27-4.64,3.07-5.53,5.61-1.06,3,.75,8.53,1.66,11.59s1.62,6.53,0,9.26-4.92,3.74-7,6.07a8.28,8.28,0,0,0,1.06,11.48c-3.7-.15-6.75,3.68-6.56,7.38s3,6.89,6.3,8.51,7.14,1.9,10.85,1.84a65.23,65.23,0,0,0,13.64-1.66c3.69-.84,7.53-2.16,9.89-5.12,2.16-2.72,2.71-6.4,2.65-9.88-.19-12.3-6.87-24.38-4.28-36.42"/><path class="cls-6" d="M395.53,85.17h0s-7.31-4.92-9.11-6.51c-3.34-3-3.08-3.26-2.68-3.6,1.08-.92,6.07,5,5.71,3.06s-6.92-6.46-5.75-7.38c1.52-1.18,6.63,5.08,7.1,5.57s1.19-.18.74-.61c-.64-.61-7.26-7.2-5.78-8.38.82-.65,1.83,1,1.83,1s5.75,6.63,6.43,6-2.56-4.6-3.74-5.87-1.07-2.35-.1-2.42c.67,0,4.4,3.76,5.55,5S400,76,399.84,72.94V72.8c-.2-3,.64-5.36,1.35-5.88a1,1,0,0,1,1.57,1,1,1,0,0,1-.07.43c0,.06,0,.15-.06.22a15.23,15.23,0,0,0-.14,3.06,8,8,0,0,0,.56,2.69c.39,1,.76,1.83,1.1,2.52l2.06,4.68L400.44,87Z"/><path class="cls-6" d="M527.28,242.05l5.86,134,16.66.48s5-73.87,3.94-81.27S550,247.9,550,247.9Z"/><path class="cls-6" d="M501.87,242.05l5.86,134,16.66.48s5-73.87,3.94-81.27-3.7-47.34-3.7-47.34Z"/><polygon class="cls-7" points="504.33 298.36 504.53 302.91 528.39 304.4 528.39 297.73 504.33 298.36"/><polygon class="cls-7" points="529.71 297.69 530.01 304.4 553.75 305.93 553.89 297.05 529.71 297.69"/><path class="cls-8" d="M562.48,296.83a6,6,0,0,0,5.85-6.57c-1.53-17.06-5.81-63.42-8.5-79.2a73.24,73.24,0,0,0-14-31.7l-16.36-24.42-.27-19.23s2.43-13.7,2.42-13.91c-.43-15.91-22.83-18.39-34-16.46l-6.61.18H489.6L436,104.22,404.58,74.38,394.86,88.5,429.69,124l46.44,5.78c.05.74-.09,2.56-.26,4.71-.51,6.51-.77,14.3,7.7,21.23,6.7,14.84,11.46,27.26,10,44.07l.09,0,.89,98.88Z"/><path class="cls-5" d="M528.93,154.72a10,10,0,0,1-1.2,1.19c-.4.37-.89.82-1.49,1.31s-1.26,1.08-2,1.66a63.83,63.83,0,0,1-5.63,3.89,65.66,65.66,0,0,1-15.23,6.91,64.4,64.4,0,0,1-6.64,1.67c-.95.21-1.83.32-2.59.44s-1.43.21-2,.26a11.57,11.57,0,0,1-1.68.12,9.27,9.27,0,0,1,1.65-.32c.54-.08,1.2-.19,1.95-.34s1.62-.29,2.56-.52c1.9-.4,4.13-1,6.57-1.76a78.85,78.85,0,0,0,7.77-3,77.06,77.06,0,0,0,7.36-3.88c2.19-1.33,4.11-2.62,5.66-3.78.79-.55,1.47-1.11,2.08-1.58s1.12-.89,1.54-1.24A9.59,9.59,0,0,1,528.93,154.72Z"/><path class="cls-5" d="M529.33,155.09a3.42,3.42,0,0,1,.85-.55,26.47,26.47,0,0,1,2.5-1.17,29.06,29.06,0,0,1,3.91-1.27c.75-.19,1.54-.36,2.37-.5a8.71,8.71,0,0,1,1.32-.15,1.33,1.33,0,0,1,.77.27,1,1,0,0,1,.32.8,2.17,2.17,0,0,1-.63,1.33,3.65,3.65,0,0,1-1.09.8,7.62,7.62,0,0,1-2.4.65,25,25,0,0,1-4.1.18,19.7,19.7,0,0,1-2.75-.3,3.49,3.49,0,0,1-1-.27c0-.09,1.43.2,3.73.2a29.56,29.56,0,0,0,4-.29,7.51,7.51,0,0,0,2.23-.62,3.25,3.25,0,0,0,.94-.7,1.69,1.69,0,0,0,.49-1c0-.34-.21-.51-.59-.53a8.81,8.81,0,0,0-1.21.14c-.82.12-1.61.28-2.35.45a35.1,35.1,0,0,0-3.88,1.15C530.64,154.5,529.37,155.17,529.33,155.09Z"/><path class="cls-5" d="M529,154.47a2.86,2.86,0,0,1,.25-.92,15.11,15.11,0,0,1,1.06-2.37,18.4,18.4,0,0,1,2.18-3.2,21.78,21.78,0,0,1,1.57-1.66c.29-.27.59-.54.91-.8a1.69,1.69,0,0,1,.62-.37.74.74,0,0,1,.79.39,1.65,1.65,0,0,1-.1,1.4,10.36,10.36,0,0,1-.48,1.13,12.36,12.36,0,0,1-1.23,1.94,20.24,20.24,0,0,1-2.67,2.8c-.83.71-1.54,1.25-2,1.61a3.33,3.33,0,0,1-.8.52c0-.06,1-.93,2.58-2.41a21.11,21.11,0,0,0,2.53-2.8,12.23,12.23,0,0,0,1.16-1.89,10.14,10.14,0,0,0,.46-1.07c.14-.37.26-.77.13-1s-.16-.17-.23-.15a1.32,1.32,0,0,0-.4.27c-.31.26-.61.52-.89.78a19.46,19.46,0,0,0-1.56,1.6,20.36,20.36,0,0,0-2.22,3.06C529.51,153.22,529.08,154.51,529,154.47Z"/><path class="cls-8" d="M507.73,121.87l-14.12,91.46h17.16l18.66-81.57c2.83-14.67-4.19-19.56-12.41-18.81l-.85.11A10.43,10.43,0,0,0,507.73,121.87Z"/><path class="cls-5" d="M520.73,113.2s-.18,0-.52,0l-1.51-.11a12.65,12.65,0,0,0-5.64,1.11,9.17,9.17,0,0,0-3.17,2.65,8.89,8.89,0,0,0-1.78,4.57c-.58,3.55-1.29,7.6-2,12.08-2.76,18-6.55,42.73-10.75,70.1q-.76,5-1.51,9.8l-.26-.3h17.16l-.24.2c4.93-20.57,9.2-38.37,12.24-51,1.54-6.31,2.76-11.34,3.61-14.82.42-1.71.75-3,1-3.95.11-.44.2-.77.27-1a2.24,2.24,0,0,1,.1-.35,1.59,1.59,0,0,1-.06.36c-.06.25-.13.59-.22,1-.21.92-.52,2.25-.91,4-.81,3.49-2,8.53-3.46,14.85-3,12.69-7.2,30.49-12.07,51.08l0,.19H493.31l.05-.3c.49-3.22,1-6.49,1.51-9.8,4.25-27.36,8.1-52.13,10.89-70.08.72-4.48,1.46-8.52,2.06-12.08.08-.44.15-.88.23-1.31a8.19,8.19,0,0,1,.41-1.24,11.12,11.12,0,0,1,1.23-2.11A9.46,9.46,0,0,1,513,114a12.42,12.42,0,0,1,5.73-1c.67.05,1.18.12,1.52.16A5.08,5.08,0,0,1,520.73,113.2Z"/><path class="cls-5" d="M487,155.88s-.13,0-.36,0a8.35,8.35,0,0,1-1-.19,11.46,11.46,0,0,1-3.47-1.59,14,14,0,0,1-3.93-4.06,17.56,17.56,0,0,1-2.43-6.49,32.29,32.29,0,0,1,.7-12.47c.36-1.56.69-2.81.93-3.67a8.18,8.18,0,0,1,.43-1.32,6.9,6.9,0,0,1-.23,1.37l-.77,3.7a34.48,34.48,0,0,0-.55,12.3,17.56,17.56,0,0,0,2.32,6.32,13.37,13.37,0,0,0,8.38,6.11Z"/><path class="cls-5" d="M502.7,150.8a8.45,8.45,0,0,1-7.13-5.21,22.22,22.22,0,0,0,3.14,3.19A20.75,20.75,0,0,0,502.7,150.8Z"/><polygon class="cls-6" points="494.42 213.63 492.97 218.43 479.23 220.94 505.59 220.94 507.9 213.65 494.42 213.63"/><path class="cls-9" d="M507.09,376.55l.1-3.91,18.43.49-.13,8.32-1.14.05c-5.07.19-25.81.57-29.18-.53C491.42,379.75,507.09,376.55,507.09,376.55Z"/><g class="cls-10"><path class="cls-11" d="M499.43,378.39s-5.5,1.46-4.84,2.38,21.64,1.32,30.9.68l0-.41L501,380.78S500.5,378.45,499.43,378.39Z"/></g><path class="cls-5" d="M525.76,381l-.32,0-.91,0-3.34.08c-2.82.05-6.72.06-11,0s-8.2-.23-11-.38l-3.34-.21-.9-.07a1.64,1.64,0,0,1-.32,0h.32l.91,0,3.33.13c2.82.11,6.72.24,11,.32s8.2.09,11,.09h4.25A1.14,1.14,0,0,1,525.76,381Z"/><path class="cls-5" d="M501,381.07a4.92,4.92,0,0,0-1.71-2.91,3,3,0,0,1,1.71,2.91Z"/><path class="cls-5" d="M506.48,378.42c-.06,0-.31-.29-.57-.71s-.43-.8-.37-.84.3.29.56.72S506.53,378.39,506.48,378.42Z"/><path class="cls-5" d="M508,377.66s-.33-.15-.64-.44-.53-.56-.49-.61.33.16.64.45S508,377.62,508,377.66Z"/><path class="cls-5" d="M509,376a4.24,4.24,0,0,1-1.92,0,2.3,2.3,0,0,1,1-.1A2.12,2.12,0,0,1,509,376Z"/><path class="cls-5" d="M509.3,374.73a2.7,2.7,0,0,1-2.18.12,7.19,7.19,0,0,1,1.09-.05A6.31,6.31,0,0,1,509.3,374.73Z"/><path class="cls-5" d="M505.88,376.81a3.6,3.6,0,0,1-1.18,0,7.43,7.43,0,0,1-1.25-.3,4.65,4.65,0,0,1-.71-.31.62.62,0,0,1-.28-.38.45.45,0,0,1,.18-.46,2.16,2.16,0,0,1,2.67.68,2.21,2.21,0,0,1,.37.8.67.67,0,0,1,0,.31,3.31,3.31,0,0,0-.52-1,2.11,2.11,0,0,0-1-.68,1.86,1.86,0,0,0-1.41.07c-.19.14-.12.36.08.49a3.49,3.49,0,0,0,.66.29,7.58,7.58,0,0,0,1.21.34C505.44,376.76,505.89,376.77,505.88,376.81Z"/><path class="cls-5" d="M505.58,376.86a1.11,1.11,0,0,1-.12-.82,1.84,1.84,0,0,1,.34-.86,1.16,1.16,0,0,1,1-.58.46.46,0,0,1,.35.55,1.26,1.26,0,0,1-.21.53,3.52,3.52,0,0,1-.57.7c-.38.35-.67.49-.68.46s.24-.2.57-.57a4.71,4.71,0,0,0,.51-.7c.16-.25.28-.69,0-.75s-.6.25-.79.48a2,2,0,0,0-.35.77A4,4,0,0,0,505.58,376.86Z"/><path class="cls-5" d="M525.48,376a12.94,12.94,0,0,0-1.36,0,5.74,5.74,0,0,0-4.88,3.74c-.3.78-.33,1.31-.38,1.3a1.49,1.49,0,0,1,0-.37,4.71,4.71,0,0,1,.22-1,5.56,5.56,0,0,1,5-3.85,4.84,4.84,0,0,1,1,.05C525.35,376,525.48,376,525.48,376Z"/><path class="cls-5" d="M516.56,379.34a10.6,10.6,0,0,1-2.69.22,10.07,10.07,0,0,1-2.68-.27c0-.06,1.2,0,2.68,0S516.55,379.28,516.56,379.34Z"/><path class="cls-5" d="M520.16,379.41s-.11.25-.23.52-.2.52-.27.51-.09-.29.07-.6S520.12,379.36,520.16,379.41Z"/><path class="cls-5" d="M521.55,377.74c0,.05-.08.24-.28.43s-.38.3-.43.26.08-.23.28-.42S521.5,377.7,521.55,377.74Z"/><path class="cls-5" d="M523.5,377c0,.06-.26.06-.53.15s-.47.23-.51.18.11-.29.44-.4S523.52,377,523.5,377Z"/><path class="cls-5" d="M524.89,376.67c0,.06-.09.15-.24.21s-.29.05-.32,0,.09-.15.24-.21S524.87,376.62,524.89,376.67Z"/><path class="cls-9" d="M531.88,376.55l.11-3.91,18.42.49-.13,8.32-1.14.05c-5.07.19-25.81.57-29.18-.53C516.21,379.75,531.88,376.55,531.88,376.55Z"/><g class="cls-10"><path class="cls-11" d="M524.22,378.39s-5.5,1.46-4.84,2.38,21.64,1.32,30.9.68l0-.41-24.46-.26S525.29,378.45,524.22,378.39Z"/></g><path class="cls-5" d="M550.55,381l-.32,0-.91,0-3.34.08c-2.82.05-6.72.06-11,0s-8.2-.23-11-.38l-3.34-.21-.9-.07a1.64,1.64,0,0,1-.32,0h.32l.91,0,3.34.13c2.81.11,6.71.24,11,.32s8.2.09,11,.09h4.25A1.14,1.14,0,0,1,550.55,381Z"/><path class="cls-5" d="M525.8,381.07a4.92,4.92,0,0,0-1.71-2.91,2.57,2.57,0,0,1,1.31,1.19A2.5,2.5,0,0,1,525.8,381.07Z"/><path class="cls-5" d="M531.27,378.42s-.31-.29-.57-.71-.43-.8-.37-.84.3.29.56.72S531.32,378.39,531.27,378.42Z"/><path class="cls-5" d="M532.77,377.66s-.33-.15-.64-.44-.53-.56-.49-.61.33.16.64.45S532.81,377.62,532.77,377.66Z"/><path class="cls-5" d="M533.74,376a4.24,4.24,0,0,1-1.92,0,2.4,2.4,0,0,1,1-.1A2.06,2.06,0,0,1,533.74,376Z"/><path class="cls-5" d="M534.09,374.73A1.78,1.78,0,0,1,533,375a1.83,1.83,0,0,1-1.11-.17,7.31,7.31,0,0,1,1.09-.05A6.31,6.31,0,0,1,534.09,374.73Z"/><path class="cls-5" d="M530.68,376.81a3.63,3.63,0,0,1-1.18,0,7.52,7.52,0,0,1-1.26-.3,4.65,4.65,0,0,1-.71-.31.66.66,0,0,1-.28-.38.45.45,0,0,1,.18-.46,2.16,2.16,0,0,1,2.67.68,2.21,2.21,0,0,1,.37.8c0,.2,0,.31,0,.31a3.31,3.31,0,0,0-.52-1,2.11,2.11,0,0,0-1-.68,1.86,1.86,0,0,0-1.41.07c-.19.14-.12.36.09.49a3.15,3.15,0,0,0,.65.29,7.58,7.58,0,0,0,1.21.34C530.23,376.76,530.68,376.77,530.68,376.81Z"/><path class="cls-5" d="M530.37,376.86a1.11,1.11,0,0,1-.12-.82,1.84,1.84,0,0,1,.34-.86,1.18,1.18,0,0,1,1-.58.48.48,0,0,1,.36.55,1.41,1.41,0,0,1-.22.53,3.52,3.52,0,0,1-.57.7c-.37.35-.67.49-.68.46s.24-.2.57-.57a4.09,4.09,0,0,0,.51-.7c.17-.25.28-.69,0-.75s-.6.25-.79.48a2,2,0,0,0-.35.77A4,4,0,0,0,530.37,376.86Z"/><path class="cls-5" d="M550.27,376a12.87,12.87,0,0,0-1.36,0,5.74,5.74,0,0,0-4.88,3.74c-.3.78-.33,1.31-.37,1.3s0-.13,0-.37a5.48,5.48,0,0,1,.22-1,5.56,5.56,0,0,1,5-3.85,4.79,4.79,0,0,1,1,.05C550.15,376,550.27,376,550.27,376Z"/><path class="cls-5" d="M541.35,379.34a10.53,10.53,0,0,1-2.69.22,10.07,10.07,0,0,1-2.68-.27c0-.06,1.21,0,2.68,0S541.34,379.28,541.35,379.34Z"/><path class="cls-5" d="M545,379.41s-.1.25-.23.52-.2.52-.27.51-.08-.29.07-.6S544.91,379.36,545,379.41Z"/><path class="cls-5" d="M546.34,377.74c0,.05-.08.24-.28.43s-.38.3-.42.26.07-.23.27-.42S546.29,377.7,546.34,377.74Z"/><path class="cls-5" d="M548.29,377c0,.06-.26.06-.53.15s-.47.23-.51.18.11-.29.45-.4S548.31,377,548.29,377Z"/><path class="cls-5" d="M549.68,376.67c0,.06-.08.15-.24.21s-.29.05-.31,0,.08-.15.24-.21S549.66,376.62,549.68,376.67Z"/><path class="cls-6" d="M508,61.78v2.93l.19,43.81c0,5.09-4.33,9.16-9.78,9.14h0c-5.5,0-10-4.19-10.15-9.33-.11-5.39-.33-11.07-.33-11.07s-7-1-8.57-10.07c-.79-4.49-.7-11.89-.43-17.94a9.57,9.57,0,0,1,10.4-9.11Z"/><path class="cls-5" d="M481,74.77a1.16,1.16,0,0,0,1.15,1.15,1.12,1.12,0,0,0,1.18-1.07,1.15,1.15,0,0,0-1.14-1.15A1.11,1.11,0,0,0,481,74.77Z"/><path class="cls-5" d="M480.58,73.07c.14.15,1-.52,2.26-.54s2.18.59,2.31.43-.08-.34-.49-.62a3.18,3.18,0,0,0-1.85-.53,3,3,0,0,0-1.8.61C480.63,72.72,480.5,73,480.58,73.07Z"/><path class="cls-5" d="M492.88,74.55A1.18,1.18,0,0,0,494,75.71a1.12,1.12,0,0,0,1.18-1.07,1.17,1.17,0,0,0-1.14-1.16A1.13,1.13,0,0,0,492.88,74.55Z"/><path class="cls-5" d="M492.88,73.08c.14.15,1-.52,2.26-.54s2.18.6,2.32.44-.09-.34-.5-.62a3.16,3.16,0,0,0-3.65.08C492.93,72.74,492.81,73,492.88,73.08Z"/><path class="cls-5" d="M488.5,82.44a8.31,8.31,0,0,0-2-.33c-.32,0-.62-.09-.68-.3a1.61,1.61,0,0,1,.2-1c.28-.78.58-1.6.9-2.45a42.17,42.17,0,0,0,2-6.4,41.51,41.51,0,0,0-2.52,6.22l-.86,2.46a1.84,1.84,0,0,0-.15,1.26.79.79,0,0,0,.54.46,1.79,1.79,0,0,0,.54.06A8.08,8.08,0,0,0,488.5,82.44Z"/><path class="cls-7" d="M487.9,97.26A23,23,0,0,0,500,93.81s-2.83,6.28-11.92,5.59Z"/><path class="cls-7" d="M489.08,85.45a2.26,2.26,0,0,1,2-.88,2,2,0,0,1,1.43.74,1.31,1.31,0,0,1,.13,1.49,1.51,1.51,0,0,1-1.63.44,4.85,4.85,0,0,1-1.62-.92A1.27,1.27,0,0,1,489,86a.41.41,0,0,1,0-.46"/><path class="cls-5" d="M492.2,83.24c-.21,0-.18,1.35-1.33,2.34s-2.59.86-2.6,1,.33.25.94.26a3.39,3.39,0,0,0,2.17-.8,3,3,0,0,0,1-2C492.45,83.57,492.29,83.23,492.2,83.24Z"/><path class="cls-5" d="M510.25,103.31c-2.7-.88-5.88-1.77-6.93-4.4a13.4,13.4,0,0,1-.34-8.35c.33-1.27.82-2.66.24-3.84a7.19,7.19,0,0,0-2-2,8.45,8.45,0,0,1-2.68-5.68,14.63,14.63,0,0,1,1-6.29c.41-1.1.91-2.31.49-3.42a5.26,5.26,0,0,0-1.61-1.88,14.85,14.85,0,0,1-3.22-4.16,4.18,4.18,0,0,1-.49-3.58c.63-1.37,2.33-1.83,3.84-2,3.58-.34,7.56.38,9.89,3.12,2.1,2.46,2.39,5.93,2.6,9.15.63,10.15,1.27,20.39-.31,30.44"/><path class="cls-5" d="M475.33,61.35a15.37,15.37,0,0,0,1.56.81,11,11,0,0,1,1.33,1.12c.24.22.5.47.73.72.06.07.1.13.17.2l.26.25L480,65a16.58,16.58,0,0,0,2,1.49,10.58,10.58,0,0,0,14-2.64c1.51-2.09,1.72-3.75,1-4.65s-2.51-.73-4.5-.2a27.75,27.75,0,0,1-3,.64,7.27,7.27,0,0,1-2.36,0,5.3,5.3,0,0,1-1.1-.38c-.51-.21-1.16-.54-1.89-.87-.37-.17-.76-.33-1.18-.49l-.63-.22c-.23-.07-.49-.15-.73-.2a7.93,7.93,0,0,0-2.71-.17,4.89,4.89,0,0,0-3.68,2A1.48,1.48,0,0,0,475.33,61.35Z"/><path class="cls-5" d="M492.47,68.19c.13.33,1.37.15,2.84.3s2.67.53,2.86.22c.08-.15-.13-.46-.61-.78a4.77,4.77,0,0,0-2.13-.7,4.62,4.62,0,0,0-2.22.3C492.68,67.75,492.41,68,492.47,68.19Z"/><path class="cls-5" d="M481,69.44c.23.28,1.08,0,2.12-.06s1.92.15,2.11-.15c.09-.14-.05-.43-.44-.69a2.92,2.92,0,0,0-1.73-.43,2.87,2.87,0,0,0-1.68.6C481,69,480.87,69.3,481,69.44Z"/><path class="cls-5" d="M509.78,59.91a10.64,10.64,0,0,0,7.62-1.42,6.61,6.61,0,0,0,2.86-6.88,8,8,0,0,0-3.39-4.27,7.59,7.59,0,0,0-4.67-1.58,6.78,6.78,0,0,0-5.13,3.64,8.47,8.47,0,0,0-.59,7.46,6.4,6.4,0,0,0,6.15,3.87"/><path class="cls-9" d="M513,60.27c0,.06-.43.19-1.16.17a6.52,6.52,0,0,1-2.73-.75A6.44,6.44,0,0,1,507,57.86c-.42-.59-.57-1-.51-1.06a13.06,13.06,0,0,0,2.92,2.43A13.17,13.17,0,0,0,513,60.27Z"/><path class="cls-5" d="M500.67,57.32a13.44,13.44,0,0,1,16.76,12.13c.32,4.7-1.81,9.63-.08,14,1.56,4,5.93,6.41,7.11,10.5s-1.2,8.51-.39,12.69c.67,3.47,3.48,6.37,3.61,9.91a8.39,8.39,0,0,1-3.48,6.73,14.57,14.57,0,0,1-7.32,2.62c-2.71.29-5.64,0-7.82-1.6-2.91-2.18-3.72-6.16-4.15-9.77a122.34,122.34,0,0,1,.48-32.27"/></g><g id="Character_2" data-name="Character 2"><path class="cls-8" d="M281.12,270.25c7.77-.24,4.11-11.64,3.92-24-.12-7.78-5.29-15.4-10.92-20.76a26.51,26.51,0,0,0-9.89-5.52c-9.59-3.27-20-3.62-30-1.93C234.23,218,231.9,271.8,281.12,270.25Z"/><path class="cls-12" d="M303.11,136.52c-.22.36-2.67,5-2.67,5l2-7.82c.63-2.47-.89-2.21-1.34-1.33s-3.22,8.34-3.22,8.34c2.59-9.71,1.78-10.57,1.05-10.72s-3,8.73-3,8.73a8.31,8.31,0,0,0-2.34-2.57c-2.34-1.61-6.25,0-6.44,1.1s1.21,1.42,1.21,1.42a3.53,3.53,0,0,1,5.64,3.2,2.2,2.2,0,0,1-4.3.42c-1-4.38-2.48-3-2.48-3l1.51,9.66-1.6,4.86L278.4,177.5l-16.7-17.38s-8.92,19.73-9.13,20.39c-.14.45,8.37,9.3,14,15.06a15.79,15.79,0,0,0,26.7-7.41l6.61-34L302.94,143s1.11-4.53,1.38-5.59C304.67,136,303.69,135.56,303.11,136.52Z"/><path class="cls-5" d="M233.33,382s-6.3-5.63-17.71-6.1V275.39h-4.23V375.92c-10.93.79-17.39,6-17.39,6h17.39V382h4.23V382Z"/><path class="cls-8" d="M206.58,170.52c-4.65-.42-9.37-.79-13.94.13s-9,3.3-11.49,7.28-2.52,9-2.52,13.65q0,29.67,0,59.35h53Z"/><path class="cls-8" d="M178.62,248.19c-.23,11.7.85,21.2,9.49,25.8,6.47,3.44,14.28,3.52,21.72,3.51l32.19,0c3.27,0,6.76-.07,9.43-1.84a9.14,9.14,0,0,0,3.65-9c-.51-3.33-2.5-6.33-4.9-8.83-9.3-9.68-24-12.55-37.68-14.9"/><path class="cls-5" d="M218.87,116.05a2,2,0,0,1-2.75,2.37c-1.31-.64-1.5-2.44-1.26-3.88s.71-3,.09-4.29a9.71,9.71,0,0,0-2.27-2.44,6.27,6.27,0,0,1-1.81-5.31,5.3,5.3,0,0,1,3.59-4.21c1.9-.56,4.27,0,5.67-1.4,1-1,1.06-2.66,1.85-3.87,1.21-1.87,3.83-2.2,6-1.92s4.48,1,6.64.39c1.81-.47,3.28-1.75,5-2.55a9.77,9.77,0,0,1,12.89,13.26c-.66,1.3-2,5-6.12,5"/><path class="cls-12" d="M218,100.53l.06,3,.59,44.55c.07,5.17,4.58,9.23,10.11,9.11h0c5.6-.11,10.14-4.44,10.15-9.67,0-5.48.14-11.26.14-11.26s7.07-1.17,8.53-10.39c.73-4.58.5-12.1.11-18.25A9.73,9.73,0,0,0,237,98.53Z"/><path class="cls-5" d="M245.81,112.84a1.18,1.18,0,0,1-1.14,1.19,1.13,1.13,0,0,1-1.22-1.07,1.19,1.19,0,0,1,1.14-1.19A1.13,1.13,0,0,1,245.81,112.84Z"/><path class="cls-5" d="M246.07,111.51c-.15.16-1-.5-2.32-.5s-2.2.64-2.34.48.08-.34.49-.64a3.23,3.23,0,0,1,1.88-.58,3.16,3.16,0,0,1,1.84.6C246,111.17,246.14,111.45,246.07,111.51Z"/><path class="cls-5" d="M233.08,112.84a1.18,1.18,0,0,1-1.14,1.19,1.13,1.13,0,0,1-1.22-1.07,1.19,1.19,0,0,1,1.14-1.19A1.14,1.14,0,0,1,233.08,112.84Z"/><path class="cls-5" d="M233.56,111.75c-.14.16-1-.51-2.31-.5s-2.21.64-2.34.48.08-.35.48-.64a3.25,3.25,0,0,1,1.88-.58,3.07,3.07,0,0,1,1.84.59C233.5,111.4,233.63,111.68,233.56,111.75Z"/><path class="cls-5" d="M238.18,121.19a8.12,8.12,0,0,1,2.07-.38c.32,0,.63-.09.68-.32a1.67,1.67,0,0,0-.21-1c-.31-.79-.63-1.61-1-2.47a42.24,42.24,0,0,1-2.16-6.47,42.2,42.2,0,0,1,2.67,6.28c.32.87.63,1.69.92,2.49a1.81,1.81,0,0,1,.17,1.27.86.86,0,0,1-.53.48,2.36,2.36,0,0,1-.55.07A8.72,8.72,0,0,1,238.18,121.19Z"/><path class="cls-13" d="M239.06,136.24A23.49,23.49,0,0,1,226.71,133s3,6.33,12.22,5.47Z"/><path class="cls-5" d="M234.44,122.07c.2,0,.21,1.37,1.39,2.35s2.65.82,2.66,1-.33.27-1,.28a3.42,3.42,0,0,1-2.22-.77,3,3,0,0,1-1.08-2C234.19,122.4,234.34,122.06,234.44,122.07Z"/><path class="cls-5" d="M233.89,106.77c-.12.34-1.39.18-2.89.36s-2.7.58-2.89.27c-.09-.14.12-.47.6-.8a4.84,4.84,0,0,1,2.15-.76,4.94,4.94,0,0,1,2.26.27C233.67,106.33,234,106.6,233.89,106.77Z"/><path class="cls-5" d="M245.6,107.83c-.22.29-1.1,0-2.15,0s-1.95.19-2.15-.11,0-.44.44-.71a2.92,2.92,0,0,1,1.75-.47,3,3,0,0,1,1.72.58C245.58,107.39,245.7,107.69,245.6,107.83Z"/><path class="cls-5" d="M248,103.51s-4.71,2.47-11-.44c-4.15-1.91-8.94-2.75-10-1.9s-1.12,5.07-5.12,6.43c0,0,.53,8-2.68,7.83s-2.73-16.28-2.73-16.28l8.84-.47,8.49-1.89,8.09.88,6.28,1.51Z"/><path class="cls-5" d="M216.28,96.86c-.05-.12.71-.41,1.59-.09s1.3,1,1.18,1.09-.59-.37-1.34-.63S216.31,97,216.28,96.86Z"/><path class="cls-5" d="M218.94,94.15c.15,0,.1.95.26,2s.64,1.88.52,2-.81-.67-1-1.89A3.06,3.06,0,0,1,218.94,94.15Z"/><path class="cls-12" d="M219.41,112.12c-.13-.06-5.33-1.82-5.39,3.55s5.36,4.33,5.37,4.17S219.41,112.12,219.41,112.12Z"/><path class="cls-13" d="M217.77,117.79s-.1.06-.26.14a1,1,0,0,1-.7,0,2.33,2.33,0,0,1-1.05-2.09,3.06,3.06,0,0,1,.28-1.34,1.08,1.08,0,0,1,.71-.71.48.48,0,0,1,.55.26c.07.16,0,.26.06.27s.12-.09.08-.31a.58.58,0,0,0-.21-.34.74.74,0,0,0-.52-.14,1.3,1.3,0,0,0-1,.82,3.19,3.19,0,0,0-.34,1.5,2.41,2.41,0,0,0,1.34,2.33,1,1,0,0,0,.86-.13C217.75,117.92,217.78,117.8,217.77,117.79Z"/><path class="cls-9" d="M195,170.08s-2.12,64.29-2,70.45l67.11-.79-5.52-34.1-.05-22.21,7.54,9.55,15.95-18.62-18.72-19.92h0a32.53,32.53,0,0,0-12.59-8.15,25.73,25.73,0,0,0-7.89-1.51h0a31.59,31.59,0,0,1-19.05,0c-.78.1-1.85.2-3.2.36l-.25,0a24.33,24.33,0,0,0-21.24,22.88Z"/><path class="cls-5" d="M254.44,183.71a76.46,76.46,0,0,1-.26-8.85,76.46,76.46,0,0,1,.26-8.85,73.86,73.86,0,0,1,.26,8.85A73.86,73.86,0,0,1,254.44,183.71Z"/><g class="cls-14"><path d="M254.56,179.71a91,91,0,0,0,10,10.33L262.11,193l-7.54-9.55Z"/></g><path class="cls-9" d="M216.61,145.15s-22.61.17-25.42,24.06L189.79,187l20.5-.4Z"/><polyline class="cls-15" points="211.9 165.78 215.16 194.28 207.82 198.7 208.55 186.58 210.53 186.54 211.9 165.78"/><path class="cls-5" d="M189.79,187a1.69,1.69,0,0,1,.39,0l1.14-.06,4.29-.15,14.92-.39-.24.23c.22-3.41.46-7.14.71-11,.28-4.38.6-8.56.81-12.35a20.73,20.73,0,0,0-.37-5.31,10.71,10.71,0,0,0-1.88-4.18,7.12,7.12,0,0,0-2.95-2.32,6.49,6.49,0,0,0-2.81-.48,6.77,6.77,0,0,0-2.37.65s0,0,.13-.1a2.54,2.54,0,0,1,.42-.25,5.11,5.11,0,0,1,1.8-.5,6.43,6.43,0,0,1,2.93.41,7.32,7.32,0,0,1,3.14,2.36,11.16,11.16,0,0,1,2,4.31,20.82,20.82,0,0,1,.43,5.43c-.19,3.82-.49,8-.77,12.37-.26,3.89-.51,7.62-.74,11l0,.23h-.22l-14.93.2h-4.28l-1.15,0A1.3,1.3,0,0,1,189.79,187Z"/><path class="cls-8" d="M322.13,317.17l-4.23-8.73-16.42,7.81,6,12.85,1.05-.42c4.65-1.9,23.51-10,26.1-12.37C337.57,313.68,322.13,317.17,322.13,317.17Z"/><path class="cls-5" d="M307.12,328.83l.3-.1.83-.34,3.05-1.29c2.56-1.1,6.08-2.68,9.94-4.51s7.3-3.55,9.78-4.84l2.92-1.54.79-.43.27-.17-.29.13-.81.39L331,317.61c-2.5,1.25-6,3-9.81,4.78s-7.36,3.43-9.91,4.57l-3,1.35-.82.38Z"/><path class="cls-5" d="M329.46,318.77a7,7,0,0,1-.12-1.69,6.61,6.61,0,0,1,.48-1.62,2.38,2.38,0,0,0-.7,1.6A2.46,2.46,0,0,0,329.46,318.77Z"/><path class="cls-5" d="M323.45,318.62a2.05,2.05,0,0,0,.21-.88c.07-.49.07-.9,0-.9s-.15.38-.21.87A2,2,0,0,0,323.45,318.62Z"/><path class="cls-5" d="M321.78,318.54c.06,0,.24-.27.4-.66s.25-.72.19-.74-.23.27-.4.66S321.73,318.52,321.78,318.54Z"/><path class="cls-5" d="M320.21,317.39c0,.06.43-.07.9-.29s.85-.45.82-.5-.43.08-.91.3S320.18,317.34,320.21,317.39Z"/><path class="cls-5" d="M319.4,316.44a1.8,1.8,0,0,0,1.09-.18c.57-.22,1-.55.92-.6a6.28,6.28,0,0,0-1,.4A5,5,0,0,0,319.4,316.44Z"/><path class="cls-5" d="M323.32,316.92a3.48,3.48,0,0,0,1.06-.51,6.71,6.71,0,0,0,1-.78,3.64,3.64,0,0,0,.52-.57.61.61,0,0,0,.1-.45.46.46,0,0,0-.36-.35,2.15,2.15,0,0,0-2.12,1.7,2.11,2.11,0,0,0,0,.87c0,.2.09.3.11.3a3.12,3.12,0,0,1,.05-1.13,2.16,2.16,0,0,1,.62-1,1.85,1.85,0,0,1,1.3-.52c.23,0,.26.28.12.48a3.37,3.37,0,0,1-.47.53,7.77,7.77,0,0,1-.95.8C323.71,316.69,323.31,316.89,323.32,316.92Z"/><path class="cls-5" d="M323.62,316.84a1.13,1.13,0,0,0-.23-.79,1.79,1.79,0,0,0-.65-.63,1.14,1.14,0,0,0-1.13-.12.47.47,0,0,0-.1.64,1.33,1.33,0,0,0,.41.38,3.8,3.8,0,0,0,.8.41,1.85,1.85,0,0,0,.8.14s-.3-.09-.75-.29a4.83,4.83,0,0,1-.74-.42c-.25-.16-.54-.51-.3-.68a1,1,0,0,1,.91.11,1.91,1.91,0,0,1,.63.55A4.58,4.58,0,0,1,323.62,316.84Z"/><path class="cls-5" d="M305.32,324.18s.45-.27,1.23-.53a5.81,5.81,0,0,1,3.17-.17,5.9,5.9,0,0,1,2.76,1.55c.59.59.84,1.05.87,1a1.25,1.25,0,0,0-.15-.34,5.84,5.84,0,0,0-.6-.8,5.52,5.52,0,0,0-6.1-1.42,4.5,4.5,0,0,0-.89.45C305.41,324.08,305.31,324.17,305.32,324.18Z"/><path class="cls-5" d="M303.78,316.54a29.76,29.76,0,0,0,1.46,3.44,31.68,31.68,0,0,0,1.66,3.35,32.58,32.58,0,0,0-1.46-3.44A34,34,0,0,0,303.78,316.54Z"/><path class="cls-5" d="M314.73,323.55a9.67,9.67,0,0,0,2.51-.9,10.4,10.4,0,0,0,2.31-1.33c0-.06-1.07.52-2.4,1.13S314.71,323.49,314.73,323.55Z"/><path class="cls-5" d="M311.51,325.08c0,.06.19.18.42.38s.39.38.44.35,0-.3-.3-.52S311.52,325,311.51,325.08Z"/><path class="cls-5" d="M309.58,324.15c0,.05.16.17.42.26s.47.12.49.07-.17-.18-.42-.27S309.6,324.09,309.58,324.15Z"/><path class="cls-5" d="M307.51,324.28c0,.05.26,0,.54-.08s.52,0,.54-.05-.22-.22-.57-.17S307.47,324.24,307.51,324.28Z"/><path class="cls-5" d="M306.12,324.54c0,.06.14.1.3.09s.29-.07.29-.13-.14-.1-.3-.09S306.12,324.48,306.12,324.54Z"/><path class="cls-8" d="M269.7,377l-.14-9.7-18.18.13.05,14.21,1.13.06c5,.24,25.54.87,28.88-.17C285.18,380.34,269.7,377,269.7,377Z"/><path class="cls-5" d="M251.17,381.2l.31,0,.9,0,3.31.12c2.79.08,6.65.14,10.91.11s8.12-.13,10.91-.25l3.31-.16.89-.06.32,0h-.32l-.9,0-3.3.09c-2.79.07-6.65.16-10.91.18s-8.12,0-10.91-.05l-3.31-.05h-1.21Z"/><path class="cls-5" d="M275.67,381.53a7.35,7.35,0,0,1,.61-1.58,8.17,8.17,0,0,1,1.11-1.28,2.5,2.5,0,0,0-1.3,1.16A2.47,2.47,0,0,0,275.67,381.53Z"/><path class="cls-5" d="M270.29,378.84s.3-.28.56-.7.44-.78.39-.82-.31.29-.57.71S270.23,378.81,270.29,378.84Z"/><path class="cls-5" d="M268.81,378.08s.32-.15.64-.44.53-.55.49-.59-.33.15-.64.43S268.77,378,268.81,378.08Z"/><path class="cls-5" d="M267.87,376.37a2.14,2.14,0,0,0,.95.11c.52,0,.95,0,.95-.11a2.18,2.18,0,0,0-.95-.11A2.14,2.14,0,0,0,267.87,376.37Z"/><path class="cls-5" d="M267.54,375.16a1.87,1.87,0,0,0,1.06.3,2,2,0,0,0,1.09-.15,4.88,4.88,0,0,0-1.08-.07A5.6,5.6,0,0,0,267.54,375.16Z"/><path class="cls-5" d="M270.89,377.25a3.19,3.19,0,0,0,1.17,0,8.16,8.16,0,0,0,1.24-.28,3.86,3.86,0,0,0,.71-.3.65.65,0,0,0,.29-.37.45.45,0,0,0-.18-.46,2.15,2.15,0,0,0-2.65.64,2.12,2.12,0,0,0-.37.78.66.66,0,0,0,0,.32,3.38,3.38,0,0,1,.52-1,2.17,2.17,0,0,1,1-.66A1.81,1.81,0,0,1,274,376c.19.14.12.35-.09.48a3.75,3.75,0,0,1-.65.28,7.23,7.23,0,0,1-1.2.32C271.34,377.21,270.89,377.22,270.89,377.25Z"/><path class="cls-5" d="M271.19,377.31a1.12,1.12,0,0,0,.13-.81,1.83,1.83,0,0,0-.32-.85,1.17,1.17,0,0,0-1-.59.45.45,0,0,0-.35.54,1.21,1.21,0,0,0,.2.52,3.22,3.22,0,0,0,.55.7,1.62,1.62,0,0,0,.68.47s-.24-.21-.56-.57a4.71,4.71,0,0,1-.5-.7c-.16-.25-.27-.69,0-.75s.59.26.77.49a2,2,0,0,1,.34.76A3.48,3.48,0,0,1,271.19,377.31Z"/><path class="cls-5" d="M251.51,376.22s.52-.05,1.34,0a5.82,5.82,0,0,1,2.94,1.19,5.91,5.91,0,0,1,1.85,2.57c.28.78.31,1.3.35,1.3s0-.13,0-.37a5.28,5.28,0,0,0-.2-1,5.52,5.52,0,0,0-4.93-3.87,4.9,4.9,0,0,0-1,0A1.05,1.05,0,0,0,251.51,376.22Z"/><path class="cls-5" d="M253.34,368.64a31.76,31.76,0,0,0-.13,3.74,32.55,32.55,0,0,0,.09,3.74,31.92,31.92,0,0,0,.13-3.74A32.42,32.42,0,0,0,253.34,368.64Z"/><path class="cls-5" d="M260.3,379.63a9.9,9.9,0,0,0,2.65.25,11.08,11.08,0,0,0,2.66-.23c0-.07-1.19,0-2.66,0S260.3,379.57,260.3,379.63Z"/><path class="cls-5" d="M256.73,379.65c0,.05.1.25.23.53s.19.51.25.5.09-.28,0-.6S256.77,379.61,256.73,379.65Z"/><path class="cls-5" d="M255.38,378s.07.23.26.42.38.31.43.27-.08-.23-.27-.42S255.42,378,255.38,378Z"/><path class="cls-5" d="M253.45,377.24c0,.06.26.06.52.15s.47.23.51.19-.1-.29-.44-.4S253.43,377.19,253.45,377.24Z"/><path class="cls-5" d="M252.08,376.89c0,.06.09.15.24.21s.29.06.31,0-.08-.15-.24-.21S252.1,376.83,252.08,376.89Z"/><path class="cls-5" d="M195.59,241.19s83.32-24.29,90.84-20.75,38.7,90.73,38.7,90.73l-23.91,11.62-30.41-74.34s-59.19,23-68.69,21.09S195.59,241.19,195.59,241.19Z"/><path class="cls-5" d="M230.75,238.73c1.19.39,46.87,15.34,50,21.26S279.3,372.3,279.3,372.3l-29.66-.06,2-101.35-50-1.25Z"/><path class="cls-8" d="M201.39,269.63a3.36,3.36,0,0,0,.73-.09l2.09-.37c1.81-.34,4.43-.86,7.65-1.55,6.44-1.37,15.31-3.43,25-6.21,4.83-1.41,9.4-2.87,13.52-4.29s7.78-2.84,10.81-4.14c1.53-.62,2.88-1.23,4.07-1.78s2.22-1,3-1.43l1.9-1a3.6,3.6,0,0,0,.64-.37,3.26,3.26,0,0,0-.7.26l-1.93.86c-.84.39-1.87.83-3.08,1.34s-2.57,1.1-4.1,1.69c-3,1.25-6.73,2.57-10.83,4s-8.68,2.83-13.5,4.23c-9.65,2.78-18.49,4.91-24.9,6.38l-7.61,1.72-2.06.48A3.44,3.44,0,0,0,201.39,269.63Z"/><path class="cls-8" d="M281.48,283.43a7.37,7.37,0,0,0,.23-1.48c.12-1.06.26-2.42.42-4s.35-3.77.55-6a27.07,27.07,0,0,0,0-7.42,11.62,11.62,0,0,0-3.73-6.4,19.63,19.63,0,0,0-5.12-3.27c-1.57-.72-2.88-1.17-3.79-1.49a7.2,7.2,0,0,0-1.43-.41c-.05.1,2,.8,5.05,2.27a20.45,20.45,0,0,1,4.92,3.3,11.22,11.22,0,0,1,3.53,6.12,28.5,28.5,0,0,1,0,7.26c-.16,2.22-.3,4.25-.43,6s-.17,3-.23,4.05A6.89,6.89,0,0,0,281.48,283.43Z"/><path class="cls-12" d="M245.89,193.81l-25.57,23.24c-6.13,5.57-17.25,7-24.15,2.37-4.13-2.76-5-7.8-5.8-12.7-1.53-9.05.46-28.85.4-28.32l18.12.44L208,198.3l30.8-17.41.56-.67c.34-.86.72-1.89,1.1-3.11a9.86,9.86,0,0,0,.45-3.28,18.86,18.86,0,0,0-.44-3.72c0-.08-.06-.19-.09-.26a1.06,1.06,0,0,1-.12-.51,1.25,1.25,0,0,1,1.8-1.35c.9.57,2.12,3.35,2.14,7,0,.05,0,.11,0,.17.12,3.67,3.53-.92,4.8-2.58s5.44-6.57,6.25-6.57c1.18,0,1.4,1.31.09,2.92s-4.89,6.76-4,7.42,7.23-7.86,7.23-7.86,1.07-2.05,2.12-1.33c1.89,1.29-5.52,9.82-6.25,10.61-.5.55.44,1.29.95.67s6.15-8.63,8.09-7.33c1.48,1-6,7.07-6.3,9.4s5.24-5.21,6.62-4.19c.52.37.85.73-2.92,4.58a118.38,118.38,0,0,1-9.74,8.12Z"/><path class="cls-8" d="M227.73,273.56c7.76-.51,4.11-11.64,3.92-24-.12-7.77-5.29-15.4-10.92-20.76a26.65,26.65,0,0,0-9.89-5.52,61.61,61.61,0,0,0-30-1.93S166.15,277.63,227.73,273.56Z"/></g><g id="Desk"><path class="cls-1" d="M520,220.94H137.7a3.29,3.29,0,1,0,0,6.58h18.2V381.6h7.86V227.52H493V381.6h7.86V227.52H520a3.29,3.29,0,1,0,0-6.58Z"/></g><g id="Character_3" data-name="Character 3"><path class="cls-9" d="M383.3,281.25c-7.77-.25-4.11-11.65-3.92-24,.12-7.78,5.29-15.4,10.92-20.76a26.51,26.51,0,0,1,9.89-5.52,61.36,61.36,0,0,1,30-1.93S432.52,282.8,383.3,281.25Z"/><path class="cls-16" d="M383.3,281.25c-7.77-.25-4.11-11.65-3.92-24,.12-7.78,5.29-15.4,10.92-20.76a26.51,26.51,0,0,1,9.89-5.52,61.36,61.36,0,0,1,30-1.93S432.52,282.8,383.3,281.25Z"/><rect class="cls-5" x="444.98" y="279.9" width="4.23" height="102.25" transform="translate(894.18 662.04) rotate(180)"/><path class="cls-5" d="M466.6,382.07H427.27s7.07-6.19,19.82-6C459.29,376.28,466.6,382.07,466.6,382.07Z"/><path class="cls-9" d="M454,176.05c4.65-.42,9.37-.79,13.95.13s9.05,3.3,11.48,7.27,2.52,9,2.53,13.66v59.35H429Z"/><path class="cls-9" d="M482,253.72c.23,11.7-.79,21.2-8.89,25.8C467,283,459.68,283,452.71,283l-30.19,0c-3.06,0-6.34-.07-8.84-1.84-2.75-1.94-3.89-5.64-3.42-9a17.17,17.17,0,0,1,4.6-8.83c8.72-9.68,22.51-12.56,35.33-14.91"/><path class="cls-9" d="M378.68,376.3l.28-10.58,19.82.39-.24,15.48-1.23.05c-5.48.2-27.85.61-31.49-.57C361.77,379.75,378.68,376.3,378.68,376.3Z"/><g class="cls-10"><path class="cls-11" d="M370.41,378.28s-5.93,1.58-5.22,2.57,23.35,1.42,33.35.74l0-.44-26.39-.29S371.57,378.35,370.41,378.28Z"/></g><path class="cls-5" d="M398.83,381.14l-.35,0-1,0-3.61.09c-3,.05-7.25.06-11.9,0s-8.85-.26-11.89-.42l-3.6-.22-1-.08-.34,0h.35l1,0,3.6.14c3,.12,7.24.26,11.89.35s8.84.09,11.89.09h4.58Z"/><path class="cls-5" d="M372.12,381.17a9.19,9.19,0,0,0-.64-1.73,8.06,8.06,0,0,0-1.21-1.4,2.64,2.64,0,0,1,1.41,1.28A2.76,2.76,0,0,1,372.12,381.17Z"/><path class="cls-5" d="M378,378.32c-.06,0-.33-.31-.61-.77a2.34,2.34,0,0,1-.41-.9c.06,0,.33.31.62.77S378.08,378.28,378,378.32Z"/><path class="cls-5" d="M379.64,377.5c0,.05-.35-.17-.69-.48s-.57-.61-.52-.65.35.16.69.48S379.69,377.45,379.64,377.5Z"/><path class="cls-5" d="M380.69,375.65a2.17,2.17,0,0,1-1,.11,2.2,2.2,0,0,1-1-.13,2.55,2.55,0,0,1,1-.11A2.33,2.33,0,0,1,380.69,375.65Z"/><path class="cls-5" d="M381.07,374.34a2.07,2.07,0,0,1-1.16.31,2,2,0,0,1-1.19-.18,146.82,146.82,0,0,0,2.35-.13Z"/><path class="cls-5" d="M377.38,376.58a4,4,0,0,1-1.27,0,6.83,6.83,0,0,1-1.35-.32,3.42,3.42,0,0,1-.77-.34.65.65,0,0,1-.31-.4.5.5,0,0,1,.2-.5,2.37,2.37,0,0,1,3.28,1.59c0,.22,0,.35,0,.35a3.28,3.28,0,0,0-.56-1.1,2.27,2.27,0,0,0-1.07-.73,2,2,0,0,0-1.52.08c-.21.14-.13.38.09.52a3.77,3.77,0,0,0,.71.32,8.92,8.92,0,0,0,1.31.37C376.9,376.53,377.38,376.54,377.38,376.58Z"/><path class="cls-5" d="M377.05,376.63a1.21,1.21,0,0,1-.13-.88,2.16,2.16,0,0,1,.37-.93,1.27,1.27,0,0,1,1.07-.63.52.52,0,0,1,.38.6,1.35,1.35,0,0,1-.23.56,3.55,3.55,0,0,1-.61.76c-.41.39-.73.53-.74.5s.26-.22.61-.62a3.94,3.94,0,0,0,.55-.75c.18-.27.31-.75,0-.81s-.65.27-.85.52a2.15,2.15,0,0,0-.37.83A4.19,4.19,0,0,0,377.05,376.63Z"/><path class="cls-5" d="M398.53,375.71s-.57-.06-1.47,0a6.52,6.52,0,0,0-3.22,1.26,6.34,6.34,0,0,0-2,2.78c-.32.85-.36,1.42-.4,1.41s0-.14,0-.4a5.8,5.8,0,0,1,.24-1.07,6.06,6.06,0,0,1,5.42-4.15,5.65,5.65,0,0,1,1.09.05A1.29,1.29,0,0,1,398.53,375.71Z"/><path class="cls-5" d="M396.63,367.42a33,33,0,0,1,.09,4.08,36,36,0,0,1-.14,4.07,33.89,33.89,0,0,1-.1-4.07A34.79,34.79,0,0,1,396.63,367.42Z"/><path class="cls-5" d="M388.9,379.31a16.56,16.56,0,0,1-5.79-.05c0-.07,1.3,0,2.89,0S388.89,379.24,388.9,379.31Z"/><path class="cls-5" d="M392.78,379.38c.05.05-.11.27-.25.57s-.21.55-.28.55-.1-.32.07-.66S392.74,379.33,392.78,379.38Z"/><path class="cls-5" d="M394.28,377.59c.05,0-.08.25-.29.45s-.42.33-.47.29.09-.26.3-.46S394.24,377.54,394.28,377.59Z"/><path class="cls-5" d="M396.39,376.8c0,.06-.28.05-.57.15s-.51.25-.56.2.12-.31.49-.43S396.41,376.73,396.39,376.8Z"/><path class="cls-5" d="M397.89,376.43c0,.06-.09.16-.26.22s-.32.06-.34,0,.09-.16.26-.22S397.87,376.37,397.89,376.43Z"/><g class="cls-17"><polygon points="398.51 375.18 378.72 374.47 378.79 372.08 398.68 372.6 398.51 375.18"/></g><path class="cls-9" d="M331.08,329.6l4-9.8,18.42,7.32-5.66,14.41-1.18-.38c-5.19-1.74-26.29-9.21-29.28-11.59C314,326.9,331.08,329.6,331.08,329.6Z"/><g class="cls-10"><path class="cls-11" d="M322.64,328.56s-6.11-.6-5.79.57,21.36,9.53,31,12.4l.13-.42-24.62-9.53S323.7,329,322.64,328.56Z"/></g><path class="cls-5" d="M348.24,341.21a1.5,1.5,0,0,1-.33-.09l-.93-.31-3.4-1.18c-2.87-1-6.82-2.49-11.14-4.2s-8.19-3.34-11-4.56l-3.3-1.47-.89-.42-.3-.16a1.46,1.46,0,0,1,.32.12l.91.37,3.32,1.4c2.81,1.18,6.69,2.79,11,4.5s8.25,3.2,11.1,4.26l3.38,1.26.92.35A1.36,1.36,0,0,1,348.24,341.21Z"/><path class="cls-5" d="M323.22,331.86a7.57,7.57,0,0,0,0-1.84,8.43,8.43,0,0,0-.63-1.74,2.68,2.68,0,0,1,.87,1.7A2.65,2.65,0,0,1,323.22,331.86Z"/><path class="cls-5" d="M329.75,331.26c-.06,0-.2-.4-.3-.93a2,2,0,0,1-.06-1,2.19,2.19,0,0,1,.3.94C329.79,330.81,329.82,331.25,329.75,331.26Z"/><path class="cls-5" d="M331.56,331.07c-.06,0-.28-.28-.48-.69s-.32-.77-.26-.8.27.28.48.69S331.62,331,331.56,331.07Z"/><path class="cls-5" d="M333.19,329.7c0,.07-.47-.05-1-.26s-.95-.42-.92-.48a2.32,2.32,0,0,1,1,.26C332.8,329.43,333.22,329.64,333.19,329.7Z"/><path class="cls-5" d="M334,328.61a2.08,2.08,0,0,1-1.19-.12c-.65-.2-1.09-.53-1.05-.59a6.41,6.41,0,0,1,1.12.36A6.33,6.33,0,0,1,334,328.61Z"/><path class="cls-5" d="M329.77,329.41a3.77,3.77,0,0,1-1.18-.48,7.32,7.32,0,0,1-1.15-.78,3.65,3.65,0,0,1-.61-.58.76.76,0,0,1-.15-.48.54.54,0,0,1,.37-.41,2.33,2.33,0,0,1,2.43,1.7,2.22,2.22,0,0,1,.08.95.88.88,0,0,1-.1.33,3.47,3.47,0,0,0-.14-1.22,2.24,2.24,0,0,0-.75-1.06,2,2,0,0,0-1.45-.47c-.24.07-.25.32-.1.53a4.1,4.1,0,0,0,.56.54,7.3,7.3,0,0,0,1.09.8C329.33,329.19,329.78,329.37,329.77,329.41Z"/><path class="cls-5" d="M329.44,329.35a1.19,1.19,0,0,1,.19-.88,2.14,2.14,0,0,1,.66-.74,1.3,1.3,0,0,1,1.23-.21.51.51,0,0,1,.15.69,1.41,1.41,0,0,1-.42.45,3.63,3.63,0,0,1-.84.5,2,2,0,0,1-.87.21s.32-.12.8-.37a4.3,4.3,0,0,0,.78-.51c.26-.19.55-.59.27-.76a1.11,1.11,0,0,0-1,.19,2.16,2.16,0,0,0-.64.64A3.83,3.83,0,0,0,329.44,329.35Z"/><path class="cls-5" d="M349.87,336s-.51-.26-1.38-.49a6.17,6.17,0,0,0-6.35,1.93c-.6.68-.84,1.2-.88,1.18a1.6,1.6,0,0,1,.15-.38,5.53,5.53,0,0,1,.6-.91,6,6,0,0,1,6.53-2,5.76,5.76,0,0,1,1,.42A1.27,1.27,0,0,1,349.87,336Z"/><path class="cls-5" d="M351,327.6a33.57,33.57,0,0,1-1.34,3.84,31.86,31.86,0,0,1-1.57,3.77,33.9,33.9,0,0,1,1.35-3.85A34.49,34.49,0,0,1,351,327.6Z"/><path class="cls-5" d="M339.59,336a10.44,10.44,0,0,1-2.8-.8,11.13,11.13,0,0,1-2.6-1.28c0-.06,1.2.49,2.69,1.06S339.61,336,339.59,336Z"/><path class="cls-5" d="M343.2,337.44c0,.07-.2.22-.43.45s-.4.44-.46.41,0-.33.29-.59S343.18,337.38,343.2,337.44Z"/><path class="cls-5" d="M345.24,336.29c0,.06-.17.2-.44.32s-.51.17-.53.11.17-.21.43-.33S345.21,336.23,345.24,336.29Z"/><path class="cls-5" d="M347.49,336.29c0,.06-.28,0-.59-.06s-.56.06-.59,0,.22-.26.6-.24S347.53,336.24,347.49,336.29Z"/><path class="cls-5" d="M349,336.47c0,.07-.14.12-.32.12s-.32,0-.32-.12.15-.12.32-.12S349,336.41,349,336.47Z"/><g class="cls-17"><polygon points="350.04 335.52 331.76 327.9 332.67 325.7 351.1 333.17 350.04 335.52"/></g><path class="cls-5" d="M459.06,237.32S464.48,272,450.31,276C435.24,280.37,403,288.52,403,288.52l-2.44,84.81-23.61-.84L374.64,277a10.42,10.42,0,0,1,4.75-8.27l34.15-31.37Z"/><path class="cls-5" d="M330.45,325.69l22.14,8.51,30-62.28s50.8,6,65.39,4c5.21-.7,11.37-3.42,14.48-7.38,5.66-7.21,5.9-17.09,4.85-26.19l-.43-2-37.43-2-57.3,8.53a15.59,15.59,0,0,0-11.55,9Z"/><path class="cls-8" d="M379.66,269.73a8.15,8.15,0,0,0-2.88,2.52,9.87,9.87,0,0,0-1.51,3.86,25.77,25.77,0,0,0-.25,5.15c.08,3.7.13,7.06.15,9.48,0,1.22,0,2.2,0,2.88a3.51,3.51,0,0,1-.08,1.05,5,5,0,0,1-.12-1.05c-.05-.67-.1-1.66-.15-2.87-.11-2.42-.22-5.77-.3-9.48a24.07,24.07,0,0,1,.3-5.25,9.7,9.7,0,0,1,1.68-4,6.68,6.68,0,0,1,2.18-1.94A2.67,2.67,0,0,1,379.66,269.73Z"/><path class="cls-8" d="M450.31,276a3.69,3.69,0,0,1-.73,0l-2.06-.07c-1.8-.07-4.39-.2-7.6-.38-6.41-.36-15.26-.95-25-1.79S396.32,272,390,271.2c-3.19-.4-5.76-.75-7.54-1l-2-.31a3.49,3.49,0,0,1-.71-.15,5.52,5.52,0,0,1,.72,0l2.06.22,7.55.84c6.38.7,15.2,1.6,25,2.45s18.6,1.49,25,1.94l7.58.55,2.06.17A3.5,3.5,0,0,1,450.31,276Z"/><path class="cls-5" d="M449.56,141.1c.93,1.62,3.28,1.9,5,1.16s3-2.21,4.35-3.51,2.94-2.56,4.81-2.65c1.42-.07,2.93.52,4.2-.12s1.73-2.32,2.35-3.66a11.14,11.14,0,0,1,2.84-3.6,7,7,0,0,0,1.69-8.53l-.16-.29a8.83,8.83,0,0,0-4.76-4.17c-1.7-.54-3.71-.44-5-1.64-1.52-1.39-1.39-3.87-2.61-5.53a6.52,6.52,0,0,0-4.14-2.17,27.19,27.19,0,0,1-4.68-1,4.43,4.43,0,0,1-3-3.39"/><path class="cls-5" d="M441,107a10.46,10.46,0,0,0-18.55-2.88c-1,1.36-1.64,3-3,3.92-1.19.78-2.69.87-4,1.39a6.86,6.86,0,0,0-4.11,7.4c.33,1.79,1.4,3.52,1,5.29-.53,2.42-3.59,3.84-3.67,6.31-.06,1.68,1.3,3,2.62,4.08s2.81,2.14,3.16,3.78a24.21,24.21,0,0,1,0,3.3,4.79,4.79,0,0,0,4.81,4.25c1.26-.06,2.68-.59,3.68.17a7.62,7.62,0,0,1,1,1.22c1.18,1.3,3.31,1.26,4.85.45a16.68,16.68,0,0,0,3.91-3.46,7.89,7.89,0,0,1,4.38-2.7"/><path class="cls-18" d="M451,111.9l-.05,2.93-.59,43.9c-.07,5.09-4.51,9.09-10,9h0c-5.51-.12-10-4.38-10-9.53,0-5.41-.13-11.09-.13-11.09s-7-1.16-8.4-10.24c-.72-4.52-.49-11.93-.11-18a9.6,9.6,0,0,1,10.58-9Z"/><path class="cls-5" d="M423.65,124a1.17,1.17,0,0,0,1.12,1.18,1.12,1.12,0,0,0,1.2-1,1.16,1.16,0,0,0-1.12-1.18A1.12,1.12,0,0,0,423.65,124Z"/><path class="cls-5" d="M423.39,122.72c.15.15,1-.5,2.29-.5s2.17.63,2.3.48-.08-.34-.48-.64a3.12,3.12,0,0,0-1.84-.56,3.07,3.07,0,0,0-1.82.58C423.45,122.38,423.32,122.65,423.39,122.72Z"/><path class="cls-5" d="M436.2,124a1.16,1.16,0,0,0,1.12,1.18,1.12,1.12,0,0,0,1.2-1A1.17,1.17,0,0,0,437.4,123,1.12,1.12,0,0,0,436.2,124Z"/><path class="cls-5" d="M435.72,123c.14.16,1-.5,2.28-.49s2.17.63,2.31.47-.08-.34-.48-.63a3.25,3.25,0,0,0-1.85-.57,3,3,0,0,0-1.82.59C435.78,122.61,435.65,122.89,435.72,123Z"/><path class="cls-5" d="M431.17,132.25a8.38,8.38,0,0,0-2-.37c-.32,0-.62-.09-.68-.31a1.65,1.65,0,0,1,.22-.95c.3-.78.61-1.59.95-2.44a42.17,42.17,0,0,0,2.12-6.37,41.26,41.26,0,0,0-2.63,6.19c-.32.85-.62,1.67-.91,2.45a1.86,1.86,0,0,0-.17,1.25.82.82,0,0,0,.53.47,2.43,2.43,0,0,0,.54.08A8.12,8.12,0,0,0,431.17,132.25Z"/><path class="cls-19" d="M430.3,147.09a23.15,23.15,0,0,0,12.17-3.25s-3,6.24-12.05,5.39Z"/><path class="cls-19" d="M431.7,135.27a2.28,2.28,0,0,1,2-.84,2,2,0,0,1,1.43.77,1.3,1.3,0,0,1,.1,1.49,1.52,1.52,0,0,1-1.65.42,4.78,4.78,0,0,1-1.6-1,1.58,1.58,0,0,1-.36-.37.44.44,0,0,1,0-.47"/><path class="cls-5" d="M434.86,133.12c-.21,0-.21,1.35-1.37,2.31s-2.62.82-2.63,1,.33.26.94.28A3.39,3.39,0,0,0,434,136a3,3,0,0,0,1.06-1.94C435.1,133.45,435,133.11,434.86,133.12Z"/><path class="cls-5" d="M435.39,118c.13.34,1.38.18,2.85.36s2.66.58,2.86.27c.08-.15-.12-.47-.6-.8a4.83,4.83,0,0,0-2.12-.74,5,5,0,0,0-2.23.26C435.61,117.61,435.34,117.88,435.39,118Z"/><path class="cls-5" d="M423.86,119.09c.22.29,1.08,0,2.12,0s1.92.19,2.12-.11c.09-.14-.05-.43-.44-.7a2.91,2.91,0,0,0-1.72-.47,3,3,0,0,0-1.69.58C423.88,118.66,423.76,119,423.86,119.09Z"/><path class="cls-5" d="M440.71,104.79c-.06,0-.16,0-.27-.13l-.55-.55.84.33a2.62,2.62,0,0,0,.45.15c.35.09.67,0,.75.17s-.31.47-.87.34a1,1,0,0,1-.58-.39l.28-.22C440.79,104.64,440.78,104.75,440.71,104.79Z"/><path class="cls-5" d="M440.61,105.83a7.45,7.45,0,0,0-1.57,6.94,8.11,8.11,0,0,0,5.15,5.22c.6.2,1.3.4,1.53,1a2,2,0,0,1-.24,1.49,7.36,7.36,0,0,0,2.67,8.6,10.16,10.16,0,0,0,3,9.26c0-1.56,1.18-2.9,2.47-3.88a26,26,0,0,0,3.86-2.93,6.22,6.22,0,0,0,.83-7.05,4.25,4.25,0,0,1-.85-2.1c0-.9.82-1.58,1.44-2.26a8,8,0,0,0-.3-10.92c-.69-.67-1.5-1.23-2.14-1.94a33,33,0,0,1-2-3.06,10.16,10.16,0,0,0-10.09-3.9c-3.77.77-6.09,4.44-5.29,8.57"/><path class="cls-5" d="M439.6,107a13,13,0,0,1-1.06,5,5.21,5.21,0,0,1-3.85,3c-1.66.2-3.23-.65-4.84-1.1-2.1-.59-4.71-.32-5.93,1.49-.84,1.26-1,4.19-3,5-1.41.58-2.29-1.06-3.68-.42-2.32,1.07-1.94,5.07-4.28,6.1.76-1.94.39-4.1.38-6.18s.54-4.44,2.37-5.42a25.89,25.89,0,0,1,3.29-1c1.69-.63,2.86-2.13,4.07-3.46s2.76-2.62,4.56-2.58,3.25,1.31,5,1.23c1.39-.07,2.57-1,3.82-1.61s3-.81,3.85.3"/><path class="cls-8" d="M458,109.38s-.24-.18-.72-.39a4.1,4.1,0,0,0-2.17-.24,12.81,12.81,0,0,0-3.15,1.08,9,9,0,0,1-4.15.78,8.74,8.74,0,0,1-4.06-1.24,8.64,8.64,0,0,1-2.53-2.35,7.9,7.9,0,0,1-1.06-2.06,2.15,2.15,0,0,1-.18-.83,15.15,15.15,0,0,0,1.54,2.67A8.65,8.65,0,0,0,444,109a8.43,8.43,0,0,0,3.83,1.13c2.93.27,5.19-1.58,7.24-1.71a3.9,3.9,0,0,1,2.3.43C457.86,109.09,458,109.37,458,109.38Z"/><path class="cls-8" d="M409.78,127.47c0-.06.62.15,1.73.13a7,7,0,0,0,4.27-1.65,6.13,6.13,0,0,0,1.8-2.6,12.14,12.14,0,0,0,.66-3.64c.08-1.31.06-2.72.26-4.19a8,8,0,0,1,1.7-4.23,5.06,5.06,0,0,1,1.9-1.44,4.76,4.76,0,0,1,2.29-.3c1.5.16,2.81.7,4.1.84a10,10,0,0,0,6.61-1.52,10.24,10.24,0,0,0,3.23-3.36c.57-1,.77-1.55.82-1.54a1.64,1.64,0,0,1-.12.45,8.61,8.61,0,0,1-.52,1.19,10.05,10.05,0,0,1-3.2,3.57,10.29,10.29,0,0,1-6.88,1.69c-1.37-.14-2.7-.68-4.09-.81a4.17,4.17,0,0,0-2,.27,4.53,4.53,0,0,0-1.7,1.29,7.56,7.56,0,0,0-1.6,4c-.2,1.42-.19,2.81-.28,4.15a12.94,12.94,0,0,1-.73,3.77,6.59,6.59,0,0,1-2,2.72,7,7,0,0,1-4.51,1.57,5.75,5.75,0,0,1-1.3-.18A1.8,1.8,0,0,1,409.78,127.47Z"/><path class="cls-8" d="M420.91,128.1a2.8,2.8,0,0,1-.38,1.37,9,9,0,0,1-4.91,4.61,2.91,2.91,0,0,1-1.39.29,17.49,17.49,0,0,0,3.93-2.5A17.49,17.49,0,0,0,420.91,128.1Z"/><path class="cls-8" d="M475.09,127.31a7.45,7.45,0,0,0-.33-1.85,5.5,5.5,0,0,0-1.11-1.87,5.4,5.4,0,0,0-2.38-1.55,8.13,8.13,0,0,0-3.48,0,9.73,9.73,0,0,1-2,.08,4,4,0,0,1-2.07-.8c-1.22-1-1.87-2.44-2.77-3.68a5,5,0,0,0-1.67-1.54,4.83,4.83,0,0,0-2.28-.5,27.6,27.6,0,0,0-4.76.84,10.66,10.66,0,0,1-4.62-.19,10.43,10.43,0,0,1-7.86-9.46,9.1,9.1,0,0,1,0-1.42,1.68,1.68,0,0,1,.09-.49c.05,0,0,.68.1,1.89a10.86,10.86,0,0,0,1.73,4.78,10.3,10.3,0,0,0,6.05,4.24,10.19,10.19,0,0,0,4.41.14,27.52,27.52,0,0,1,4.85-.85,5.34,5.34,0,0,1,2.52.56,5.48,5.48,0,0,1,1.84,1.7c.94,1.31,1.57,2.73,2.65,3.6a4.84,4.84,0,0,0,3.77.67,8.42,8.42,0,0,1,3.65.09,5.64,5.64,0,0,1,2.48,1.71,5.5,5.5,0,0,1,1.08,2,4.46,4.46,0,0,1,.2,1.41A1.65,1.65,0,0,1,475.09,127.31Z"/><path class="cls-8" d="M468.44,133.78s-.21.49-1.05.64a2.55,2.55,0,0,1-1.47-.25,3.43,3.43,0,0,1-1.4-1.38,14.18,14.18,0,0,1-.92-2.15,5.71,5.71,0,0,0-1.26-2.18,4.11,4.11,0,0,0-2.52-1c-1-.1-2-.13-3.11-.19a18.52,18.52,0,0,1-6-1,7.63,7.63,0,0,1-3.9-3.12,5.46,5.46,0,0,1-.8-3.27,3.9,3.9,0,0,1,.19-.91c.07-.19.12-.29.14-.29s-.12.43-.13,1.21a5.57,5.57,0,0,0,.91,3.07,7.44,7.44,0,0,0,3.76,2.86,18.79,18.79,0,0,0,5.87,1c1.08.06,2.12.09,3.15.2a4.58,4.58,0,0,1,2.8,1.16,6.29,6.29,0,0,1,1.33,2.37,13.26,13.26,0,0,0,.83,2.11,3.17,3.17,0,0,0,1.21,1.31,2.34,2.34,0,0,0,1.31.3A2.1,2.1,0,0,0,468.44,133.78Z"/><path class="cls-18" d="M375.64,184.82l-4.06-5c-2.46-3.73.49-5.67.78-6.49a9,9,0,0,1,1.94-3.47l-.92-1.54a42.83,42.83,0,0,1-3.07-5c-.35-1,1.37-1.76,2-.92,1.44,1.92,3.91,5.15,5,6.27,1.42,1.48,4.86,5.46,5.36,1.93a15.37,15.37,0,0,0-.41-6.15c-.08-1.06,1.93-2.07,2.31,0,.16.88.64,2.37.91,4.53.13,1,.08,2.23.18,3.19.12,1.12,1.51,4.94,1.66,5.75Z"/><path class="cls-8" d="M412.51,164.56,399.12,198l-10.94-21.91-13.85,8.26L387.83,212a12.56,12.56,0,0,0,11.87,6.94,11.63,11.63,0,0,0,9.09-5.38c4.92-7.86,12.64-26.68,12.64-26.68C421.43,187.83,412.51,164.56,412.51,164.56Z"/><path class="cls-8" d="M461.39,191.44l6.76-29.24c-7-6.73-17.7-7.29-17.7-7.29L447,157.25a12.14,12.14,0,0,1-14.08-.4l-2.58-1.94c-8.28,1-14.29,3.78-17.79,9.65l3.66,29.12,4.25,14-8.33,30.45,55.69,2.33-10.23-35.37c-.44.76,3.84-13.61,3.84-13.61"/><path class="cls-5" d="M462.64,196.7a9.45,9.45,0,0,0-.35-1.41c-.23-.91-.57-2.22-.9-3.85a53.6,53.6,0,0,1-1-13,34.6,34.6,0,0,1,1-7.08,13.66,13.66,0,0,1,2.53-5.17,10.11,10.11,0,0,1,3-2.51c.82-.44,1.32-.58,1.31-.62a1.87,1.87,0,0,0-.37.08,7.26,7.26,0,0,0-1,.39,9.71,9.71,0,0,0-3.13,2.46A13.67,13.67,0,0,0,461,171.3a32.19,32.19,0,0,0-1,7.16,49.18,49.18,0,0,0,1.11,13c.37,1.64.75,2.94,1,3.83.14.45.27.79.35,1A1.74,1.74,0,0,0,462.64,196.7Z"/><path class="cls-18" d="M440,235.42a100,100,0,0,1-9.38,5.69c-4.1,1.95-4.3,1.59-4.45,1.07-.43-1.38,7.09-3.71,5.16-4.13s-8.84,3.91-9.23,2.45c-.5-1.91,7.42-4.2,8.07-4.45s.3-1.19-.28-.93c-.83.36-9.66,3.93-10.18,2.07-.28-1,1.64-1.33,1.64-1.33s8.53-2.74,8.26-3.61-5.34.55-7,1.16-2.63.07-2.31-.88c.22-.64,5.29-2.62,7-3.18s6.27-2,3.37-3.13-4.73-3-4.86-3.87,1-1.32,1.69-.64a11.74,11.74,0,0,0,2.67,1.64,7.79,7.79,0,0,0,2.41.71c.72.09,1.36.14,1.94.18l6.16.46,3.11,8.16Z"/><path class="cls-8" d="M467,161.09A21.7,21.7,0,0,1,474.26,172c1.36,4.47,5.29,19.62,8.17,30.89A14.45,14.45,0,0,1,473,220.2l-32.6,17.62L435,224l28.61-18.81-6.92-25.6c-1.13-3.9-1.62-7.86-.2-11.66S461,160.36,467,161.09Z"/><path class="cls-5" d="M474.88,219.4l-.16.1-.47.28c-.45.24-1.06.59-1.85,1l-7,3.82L440.48,238l-.24.13-.09-.25c-1.66-4.27-3.46-8.92-5.35-13.77l-.07-.19.17-.12,12.83-8.44L463.51,205l-.1.28c-1.88-7.05-3.29-13.69-4.62-19.64-.32-1.48-.64-2.93-.94-4.33a32.31,32.31,0,0,1-.76-4.1,21.13,21.13,0,0,1,.62-7.37,10.91,10.91,0,0,1,3.11-5.13,7.89,7.89,0,0,1,4.05-1.91,6.41,6.41,0,0,1,2.81.17,4.28,4.28,0,0,1,.9.37s-.31-.13-.92-.29a6.66,6.66,0,0,0-2.76-.08,7.75,7.75,0,0,0-3.91,1.92,10.66,10.66,0,0,0-3,5,20.72,20.72,0,0,0-.55,7.25,35.83,35.83,0,0,0,.77,4.05c.32,1.39.64,2.83,1,4.32,1.36,5.93,2.79,12.58,4.68,19.6l.05.17-.15.1L448,215.82l-12.83,8.43.1-.31,5.3,13.79-.32-.12,25-13.22,7.09-3.72,1.88-1,.49-.24C474.81,219.42,474.87,219.39,474.88,219.4Z"/><path class="cls-5" d="M421.42,171.61a5.72,5.72,0,0,1,.06,1.32,15.64,15.64,0,0,1-.6,3.56,46.28,46.28,0,0,1-1.8,5,34.54,34.54,0,0,0-2,6.14,18.61,18.61,0,0,0,0,6.4,36.09,36.09,0,0,0,1.23,5.14c.44,1.44.85,2.6,1.11,3.4a6.06,6.06,0,0,1,.37,1.27,6.77,6.77,0,0,1-.56-1.2c-.32-.78-.78-1.92-1.27-3.36a33,33,0,0,1-1.36-5.17,18.35,18.35,0,0,1,0-6.57,32.06,32.06,0,0,1,2.05-6.23c.77-1.85,1.45-3.51,1.89-5A24.05,24.05,0,0,0,421.42,171.61Z"/><path class="cls-5" d="M464.21,204.93c0-.06.34-.2.94-.2a4.34,4.34,0,0,1,2.2.69,4.28,4.28,0,0,1,1.55,1.71c.25.54.28.91.22.93a8.51,8.51,0,0,0-2.05-2.2A8.34,8.34,0,0,0,464.21,204.93Z"/><path class="cls-19" d="M372.58,174.54A15,15,0,0,1,373.7,176a13.17,13.17,0,0,0,1.34,1.48,3.71,3.71,0,0,1,.82,1,1.28,1.28,0,0,1-.17,1.5,1.59,1.59,0,0,1-1.46.28,3.67,3.67,0,0,1-1.16-.55,5.36,5.36,0,0,1-1.44-1.53,5.27,5.27,0,0,1-.82-1.71c.08,0,.44.58,1.12,1.49a5.72,5.72,0,0,0,1.41,1.35,3.07,3.07,0,0,0,1,.45,1.12,1.12,0,0,0,1-.15.8.8,0,0,0,.07-.91,3.62,3.62,0,0,0-.69-.86,10.16,10.16,0,0,1-1.31-1.6A4.25,4.25,0,0,1,372.58,174.54Z"/><path class="cls-19" d="M374.37,171.63a11.49,11.49,0,0,1,1.71,1.82l1.74,2.05c.33.41.68.78,1,1.27a1.8,1.8,0,0,1,.31.92,1.44,1.44,0,0,1-.34,1,1.84,1.84,0,0,1-1.79.61,3.06,3.06,0,0,1-1.51-.8,20.33,20.33,0,0,1-1.73-2.11,12.3,12.3,0,0,1-1.41-2.06,12.22,12.22,0,0,1,1.7,1.83,26.27,26.27,0,0,0,1.76,2,2.63,2.63,0,0,0,1.28.66,1.37,1.37,0,0,0,1.3-.44,1,1,0,0,0,0-1.28c-.27-.43-.64-.84-.95-1.24l-1.66-2.13A11.13,11.13,0,0,1,374.37,171.63Z"/><path class="cls-5" d="M399,204.23a10.07,10.07,0,0,1-.2-3.17,10,10,0,0,1,.31-3.15,19,19,0,0,1-.11,6.32Z"/><path class="cls-9" d="M433.54,281.25c-7.77-.25-4.11-11.65-3.92-24,.12-7.78,5.28-15.4,10.92-20.76a26.51,26.51,0,0,1,9.89-5.52,61.36,61.36,0,0,1,30-1.93S482.76,282.8,433.54,281.25Z"/></g><g id="Character_1" data-name="Character 1"><path class="cls-8" d="M172.23,278.76c7.77-.25,4.11-11.65,3.92-24-.12-7.77-5.29-15.4-10.92-20.75a26.49,26.49,0,0,0-9.9-5.53,61.44,61.44,0,0,0-30-1.92S123,280.31,172.23,278.76Z"/><path class="cls-5" d="M121.43,382.14s-6.3-5.5-17.71-6V280H99.49v96.29c-10.93.77-17.4,5.89-17.4,5.89h17.4v.07h4.23v-.07Z"/><path class="cls-8" d="M94.68,174.3c-4.65-.42-9.37-.79-13.94.13s-9.06,3.3-11.49,7.28-2.52,9-2.52,13.65v59.35h53Z"/><path class="cls-8" d="M66.72,252c-.22,11.7.8,21.21,8.9,25.8,6.06,3.44,13.39,3.52,20.36,3.52l30.19-.05c3.06,0,6.34-.07,8.84-1.84,2.75-1.94,3.89-5.63,3.42-9a17.27,17.27,0,0,0-4.59-8.83c-8.73-9.68-22.52-12.55-35.33-14.9"/><path class="cls-9" d="M182,376.37l-.2-10.58-19.83.25.13,15.48,1.23.07c5.48.23,27.85.8,31.49-.35C198.86,380,182,376.37,182,376.37Z"/><g class="cls-10"><path class="cls-11" d="M190.22,378.41s5.93,1.63,5.2,2.61-23.35,1.26-33.35.5l0-.44,26.4-.09S189.07,378.48,190.22,378.41Z"/></g><path class="cls-5" d="M161.79,381.07l.34,0,1,0,3.6.11c3,.08,7.26.12,11.9.07s8.85-.19,11.9-.34l3.6-.19,1-.07.34,0h-.35l-1,0-3.6.11c-3,.1-7.25.22-11.89.27s-8.85,0-11.89,0l-3.61,0h-1Z"/><path class="cls-5" d="M188.5,381.29a8,8,0,0,1,.65-1.72,8.58,8.58,0,0,1,1.21-1.4,3.22,3.22,0,0,0-1.86,3.12Z"/><path class="cls-5" d="M182.62,378.4s.33-.31.61-.77.47-.86.41-.89-.33.3-.61.76S182.56,378.36,182.62,378.4Z"/><path class="cls-5" d="M181,377.57c.05.05.36-.17.69-.48s.58-.6.53-.65-.35.17-.69.48S181,377.52,181,377.57Z"/><path class="cls-5" d="M180,375.71a2.31,2.31,0,0,0,1,.12,2.42,2.42,0,0,0,1-.12,2.25,2.25,0,0,0-1-.12A2.31,2.31,0,0,0,180,375.71Z"/><path class="cls-5" d="M179.6,374.39a2.84,2.84,0,0,0,2.35.15,7.66,7.66,0,0,0-1.18-.06A7.41,7.41,0,0,0,179.6,374.39Z"/><path class="cls-5" d="M183.27,376.66a3.63,3.63,0,0,0,1.27,0,6.83,6.83,0,0,0,1.35-.32,3.63,3.63,0,0,0,.78-.33.68.68,0,0,0,.31-.4.5.5,0,0,0-.2-.5,2.33,2.33,0,0,0-2.88.71,2.25,2.25,0,0,0-.41.86.74.74,0,0,0,0,.34,3.76,3.76,0,0,1,.57-1.09,2.34,2.34,0,0,1,1.08-.72,2,2,0,0,1,1.52.09c.2.14.13.38-.1.52a3.47,3.47,0,0,1-.71.31,8.77,8.77,0,0,1-1.31.36C183.75,376.61,183.27,376.62,183.27,376.66Z"/><path class="cls-5" d="M183.6,376.72a1.25,1.25,0,0,0,.13-.89,2.07,2.07,0,0,0-.35-.92,1.29,1.29,0,0,0-1.07-.64.5.5,0,0,0-.39.59,1.48,1.48,0,0,0,.22.57,3.89,3.89,0,0,0,.62.76,1.87,1.87,0,0,0,.73.51s-.26-.23-.61-.62a4.38,4.38,0,0,1-.54-.76c-.18-.27-.31-.75,0-.81s.65.28.85.53a2.27,2.27,0,0,1,.37.82A4.7,4.7,0,0,1,183.6,376.72Z"/><path class="cls-5" d="M162.13,375.64c0,.05.57-.06,1.46,0a6.18,6.18,0,0,1,5.24,4.07c.32.85.35,1.42.4,1.41a1.22,1.22,0,0,0,0-.4,5,5,0,0,0-.23-1.06,6,6,0,0,0-5.38-4.19,5,5,0,0,0-1.09,0A1.4,1.4,0,0,0,162.13,375.64Z"/><path class="cls-5" d="M164.08,367.37a36.3,36.3,0,0,0-.12,4.07,33.88,33.88,0,0,0,.12,4.08,69.25,69.25,0,0,0,0-8.15Z"/><path class="cls-5" d="M171.73,379.31a11,11,0,0,0,2.9.26,11.64,11.64,0,0,0,2.89-.27c0-.07-1.3,0-2.89,0S171.74,379.24,171.73,379.31Z"/><path class="cls-5" d="M167.85,379.35s.1.28.24.57.21.56.28.56.1-.32-.06-.66S167.89,379.31,167.85,379.35Z"/><path class="cls-5" d="M166.36,377.55c-.05.05.08.25.29.46s.41.33.46.28-.08-.25-.29-.45S166.41,377.5,166.36,377.55Z"/><path class="cls-5" d="M164.26,376.74c0,.07.27.06.57.16s.5.25.55.21-.12-.32-.48-.44S164.23,376.68,164.26,376.74Z"/><path class="cls-5" d="M162.76,376.37c0,.06.09.16.26.22s.31.06.34,0-.09-.16-.26-.22S162.78,376.31,162.76,376.37Z"/><g class="cls-17"><polygon points="162.15 375.11 181.95 374.54 181.89 372.16 162 372.53 162.15 375.11"/></g><path class="cls-9" d="M151,376.44l-.07-10.59H131.07L131,381.34l1.23.07c5.47.31,27.83,1.17,31.49.06C167.8,380.23,151,376.44,151,376.44Z"/><g class="cls-10"><path class="cls-11" d="M159.19,378.58s5.9,1.71,5.16,2.68-23.37,1-33.35.08l0-.45,26.4.25S158,378.63,159.19,378.58Z"/></g><path class="cls-5" d="M130.72,380.88l.34,0,1,.06,3.6.15c3.05.12,7.25.21,11.9.22s8.85-.08,11.9-.18L163,381l1-.06.34,0H163l-3.61.07c-3,.06-7.24.12-11.89.11s-8.85-.08-11.89-.15l-3.6-.08h-1.33Z"/><path class="cls-5" d="M157.43,381.44a5.15,5.15,0,0,1,1.9-3.09,3.2,3.2,0,0,0-1.9,3.09Z"/><path class="cls-5" d="M151.58,378.47c.06,0,.34-.3.63-.76a2.09,2.09,0,0,0,.42-.89c-.06,0-.34.31-.63.76S151.52,378.44,151.58,378.47Z"/><path class="cls-5" d="M150,377.62c0,.05.35-.16.69-.46s.59-.6.54-.65-.35.16-.7.47S149.93,377.57,150,377.62Z"/><path class="cls-5" d="M149,375.75a2.2,2.2,0,0,0,1,.13,2.42,2.42,0,0,0,1-.1,2.25,2.25,0,0,0-1-.14A2.39,2.39,0,0,0,149,375.75Z"/><path class="cls-5" d="M148.61,374.43a2.9,2.9,0,0,0,2.35.18,6.13,6.13,0,0,0-1.17-.08A5.83,5.83,0,0,0,148.61,374.43Z"/><path class="cls-5" d="M152.25,376.74a3.61,3.61,0,0,0,1.28,0,7.61,7.61,0,0,0,1.35-.3,4.15,4.15,0,0,0,.78-.32.69.69,0,0,0,.32-.4.5.5,0,0,0-.2-.51,2.34,2.34,0,0,0-2.89.69,2.19,2.19,0,0,0-.41.84.93.93,0,0,0,0,.35A3.89,3.89,0,0,1,153,376a2.31,2.31,0,0,1,1.08-.7,2,2,0,0,1,1.52.1c.2.15.13.39-.1.52a3.56,3.56,0,0,1-.72.31,9.82,9.82,0,0,1-1.31.34C152.74,376.7,152.25,376.7,152.25,376.74Z"/><path class="cls-5" d="M152.58,376.81a1.24,1.24,0,0,0,.15-.89,2,2,0,0,0-.35-.93,1.28,1.28,0,0,0-1.06-.65.51.51,0,0,0-.39.59,1.31,1.31,0,0,0,.22.57,3.89,3.89,0,0,0,.6.77,1.9,1.9,0,0,0,.73.52s-.26-.23-.61-.64a4.54,4.54,0,0,1-.53-.76c-.18-.27-.29-.75,0-.81s.65.29.84.54a2.12,2.12,0,0,1,.36.83A4.12,4.12,0,0,1,152.58,376.81Z"/><path class="cls-5" d="M131.13,375.46a14.25,14.25,0,0,1,1.46.05,6.2,6.2,0,0,1,5.19,4.14c.31.85.33,1.42.38,1.42a1.4,1.4,0,0,0,0-.4,4.82,4.82,0,0,0-.22-1.07,6,6,0,0,0-2-3,6.15,6.15,0,0,0-3.33-1.3,5.17,5.17,0,0,0-1.09,0A.92.92,0,0,0,131.13,375.46Z"/><path class="cls-5" d="M133.19,367.21a34.29,34.29,0,0,0-.17,4.07,37.18,37.18,0,0,0,.06,4.07,66.34,66.34,0,0,0,.11-8.14Z"/><path class="cls-5" d="M140.68,379.25a11.82,11.82,0,0,0,2.9.29,11.37,11.37,0,0,0,2.9-.23c0-.07-1.3,0-2.9,0S140.69,379.18,140.68,379.25Z"/><path class="cls-5" d="M136.8,379.24c-.05.05.11.28.24.57s.2.56.27.56.1-.31-.05-.66S136.84,379.19,136.8,379.24Z"/><path class="cls-5" d="M135.34,377.42c-.05,0,.08.25.28.46s.41.34.46.29-.08-.25-.29-.46S135.38,377.37,135.34,377.42Z"/><path class="cls-5" d="M133.24,376.58c0,.07.28.07.57.17s.5.26.55.21-.11-.31-.47-.44S133.22,376.52,133.24,376.58Z"/><path class="cls-5" d="M131.75,376.19c0,.06.09.16.26.23s.31.06.34,0-.09-.16-.26-.23S131.78,376.13,131.75,376.19Z"/><g class="cls-17"><polygon points="131.16 374.93 150.96 374.61 150.93 372.22 131.04 372.35 131.16 374.93"/></g><path class="cls-9" d="M107.13,148.92a44.65,44.65,0,0,0-9.64-4,15,15,0,0,0-10.22.75,22.22,22.22,0,0,0-6.13,5.28c-2.08,2.27-4.25,4.75-4.65,7.8a9,9,0,0,0,2.74,7.44,13.82,13.82,0,0,0,7.26,3.57,18.73,18.73,0,0,0,12.81-2.28c5.1-3,8.84-8.52,14.6-9.91"/><g class="cls-20"><path d="M104.21,148.22a26.47,26.47,0,0,0-9.93-2.48,16.3,16.3,0,0,0-9.77,2.67c-1.28.89-2.51,2.29-2.21,3.81s1.79,2.26,3.21,2.53c3.45.66,6.89-.9,10-2.42l8.36-4"/></g><g class="cls-14"><path d="M76.79,157.42a4,4,0,0,0,3.45,4.74,6.3,6.3,0,0,0,4-1.1c1.19-.73,2.27-1.65,3.5-2.33a5.54,5.54,0,0,1,4-.75,25.71,25.71,0,0,0-9.92,10.11c-3-1.8-4.81-4.07-5.34-7.29a6.57,6.57,0,0,1,.3-3.38"/></g><path class="cls-5" d="M134.52,134.24c1.93-.56,2.88-2.77,3.06-4.78s-.16-4.07.39-6c.39-1.38,1.21-2.65,1.31-4.07s-.62-3-.67-4.57c-.05-2.16,1.24-4.16,1.27-6.31a5.44,5.44,0,1,0-10.84.61"/><path class="cls-21" d="M104.87,109.87l.06,3,.6,44.55c.07,5.17,4.57,9.23,10.11,9.11h0c5.59-.11,10.13-4.44,10.15-9.67,0-5.48.13-11.26.13-11.26s7.07-1.17,8.53-10.39c.73-4.58.5-12.1.11-18.25a9.72,9.72,0,0,0-10.73-9.07Z"/><path class="cls-5" d="M132.67,122.18a1.17,1.17,0,0,1-1.14,1.19,1.12,1.12,0,0,1-1.21-1.07,1.17,1.17,0,0,1,1.13-1.19A1.13,1.13,0,0,1,132.67,122.18Z"/><path class="cls-5" d="M132.93,120.85c-.14.16-1-.5-2.31-.5s-2.21.64-2.34.48.08-.34.48-.64a3.25,3.25,0,0,1,1.88-.58,3.14,3.14,0,0,1,1.84.6C132.87,120.51,133,120.79,132.93,120.85Z"/><path class="cls-5" d="M119.94,122.18a1.18,1.18,0,0,1-1.14,1.19,1.13,1.13,0,0,1-1.22-1.07,1.19,1.19,0,0,1,1.14-1.19A1.13,1.13,0,0,1,119.94,122.18Z"/><path class="cls-5" d="M120.43,121.09c-.15.16-1.05-.51-2.32-.5s-2.2.64-2.34.48.08-.35.49-.64a3.22,3.22,0,0,1,1.87-.58,3.07,3.07,0,0,1,1.84.59C120.37,120.74,120.5,121,120.43,121.09Z"/><path class="cls-5" d="M125,130.53a8.26,8.26,0,0,1,2.07-.38c.33,0,.63-.09.69-.32a1.69,1.69,0,0,0-.22-1c-.3-.78-.62-1.61-1-2.47a43.6,43.6,0,0,1-2.16-6.47,42.82,42.82,0,0,1,2.68,6.28c.32.87.62,1.7.92,2.49a1.87,1.87,0,0,1,.16,1.27.79.79,0,0,1-.53.48,2.36,2.36,0,0,1-.55.07A8.72,8.72,0,0,1,125,130.53Z"/><path class="cls-22" d="M125.92,145.58a23.44,23.44,0,0,1-12.34-3.29s3,6.33,12.22,5.47Z"/><path class="cls-22" d="M124.51,133.59a2.32,2.32,0,0,0-2.06-.85,2.08,2.08,0,0,0-1.44.78,1.32,1.32,0,0,0-.11,1.51,1.54,1.54,0,0,0,1.67.43,5,5,0,0,0,1.63-1,1.27,1.27,0,0,0,.36-.37.42.42,0,0,0,0-.48"/><path class="cls-5" d="M121.3,131.41c.21,0,.21,1.37,1.39,2.35s2.65.82,2.66,1-.32.27-.95.28a3.46,3.46,0,0,1-2.22-.77,3,3,0,0,1-1.08-2C121.05,131.74,121.21,131.4,121.3,131.41Z"/><path class="cls-5" d="M120.76,116.11c-.13.34-1.4.18-2.89.36s-2.7.58-2.9.27c-.09-.14.12-.47.61-.8a4.75,4.75,0,0,1,2.14-.76,5,5,0,0,1,2.27.27C120.53,115.67,120.81,115.94,120.76,116.11Z"/><path class="cls-5" d="M132.46,117.17c-.22.29-1.1,0-2.15,0s-1.95.19-2.15-.11.05-.44.44-.71a3.13,3.13,0,0,1,3.47.11C132.44,116.73,132.56,117,132.46,117.17Z"/><path class="cls-5" d="M113.92,103.05a22.51,22.51,0,0,0,2.38,7.89,9.15,9.15,0,0,0,6.44,4.73A13.92,13.92,0,0,0,129,114.5l5.87-2.06a11.06,11.06,0,0,0,3.28-1.58,6.79,6.79,0,0,0,2-7A10.2,10.2,0,0,0,132.69,97a16.54,16.54,0,0,0-10.42,1.19,45.14,45.14,0,0,0-9,5.66"/><path class="cls-5" d="M116.66,103.21,115,102.9a6.91,6.91,0,0,0-3-2.52,4.25,4.25,0,0,0,.5-.88,5.22,5.22,0,0,0-2.82-6.63,8.4,8.4,0,0,1-2.36-1c-.86-.68-1.13-1.88-1.84-2.72-1.11-1.3-3-1.5-4.7-1.61a10.88,10.88,0,0,0-3.42.15,3.61,3.61,0,0,0-2.54,2.11c-.4,1.14,0,2.48-.57,3.55s-1.72,1.41-2.57,2.15c-2,1.69-1.9,4.88-.68,7.18a9.79,9.79,0,0,0,8.22,5.08,8,8,0,0,0,1.1,0,7.48,7.48,0,0,1-1,1.88c-.92,1.17-2.3,1.88-3.41,2.87a8.48,8.48,0,0,0,0,12.68,13.78,13.78,0,0,1,2.74,2.53c.71,1.11.79,2.5,1.22,3.74a6.9,6.9,0,0,0,10.34,3.5,4.44,4.44,0,0,0,2.18-3.89c-.17-1.8-1.83-3.18-2-5s1-3.36,1-5.11c-.07-2-1.85-3.8-1.45-5.78s2.52-2.81,4-4A8.12,8.12,0,0,0,116.66,103.21Z"/><path class="cls-9" d="M109.23,101.6c.06,0-.06.52-.47,1.22a7.63,7.63,0,0,1-2.13,2.34,7.83,7.83,0,0,1-2.89,1.31,2.51,2.51,0,0,1-1.31.06,15.63,15.63,0,0,0,3.89-1.79A15.71,15.71,0,0,0,109.23,101.6Z"/><path class="cls-5" d="M96,144.1a8,8,0,0,0,.59.84A3.52,3.52,0,0,0,99,146.06a3.85,3.85,0,0,0,3.36-1.87,5,5,0,0,0,.81-2.22,2.5,2.5,0,0,0-.68-2.24,1.44,1.44,0,0,0-1-.38,1.19,1.19,0,0,0-.87.58c-.4.62.26,1.37.93,1.42a2.52,2.52,0,0,0,1.86-.76,4.46,4.46,0,0,0,1-1.55,4.67,4.67,0,0,0,.21-2.72c-.15-.65-.34-1-.3-1a2.27,2.27,0,0,1,.5.94,4.66,4.66,0,0,1-.06,2.91,4.56,4.56,0,0,1-1.1,1.73,2.9,2.9,0,0,1-2.2.93,1.81,1.81,0,0,1-1.22-.67,1.35,1.35,0,0,1-.11-1.48,1.71,1.71,0,0,1,1.26-.84,1.92,1.92,0,0,1,1.45.5,3,3,0,0,1,.84,2.69,5.23,5.23,0,0,1-.92,2.43,4.16,4.16,0,0,1-3.78,2,3.61,3.61,0,0,1-2.56-1.35,2.61,2.61,0,0,1-.38-.7C96,144.2,96,144.1,96,144.1Z"/><path class="cls-5" d="M95.12,134.44a5.1,5.1,0,0,0,.6,1.25,2.64,2.64,0,0,0,1.16.86,3.13,3.13,0,0,0,1.76.12,5.22,5.22,0,0,0,2.78-1.76c.59-.66.9-1.13,1-1.09s-.14.57-.67,1.32a5,5,0,0,1-3,2,3.45,3.45,0,0,1-2-.18,3.05,3.05,0,0,1-1.28-1.09C94.89,135.06,95.07,134.41,95.12,134.44Z"/><path class="cls-5" d="M115.36,102.65c-.07,0-.08-.14,0-.3l.28.22a.91.91,0,0,1-.58.39c-.58.14-1-.21-.88-.33s.4-.08.75-.17a2.84,2.84,0,0,0,.47-.16l.83-.33-.55.55C115.52,102.63,115.42,102.69,115.36,102.65Z"/><path class="cls-5" d="M122.24,88.79s.09.07.22.25a3.46,3.46,0,0,1,.43.85,4.31,4.31,0,0,1-4.81,5.72,3.29,3.29,0,0,1-2.63-1.75,1.76,1.76,0,0,1,.26-1.77,2.16,2.16,0,0,1,1.65-.8,2.66,2.66,0,0,1,2.43,2.31,4.32,4.32,0,0,1-.8,3.05,11.46,11.46,0,0,1-1.91,2,16.84,16.84,0,0,1-1.92,1.48,10.6,10.6,0,0,1-3.19,1.44,3.7,3.7,0,0,1-1.27.18A13.31,13.31,0,0,0,115,99.87a15.63,15.63,0,0,0,1.84-1.49,11.23,11.23,0,0,0,1.8-2,3.85,3.85,0,0,0,.69-2.7,2.14,2.14,0,0,0-1.93-1.87c-1,0-1.83,1-1.42,1.86a2.85,2.85,0,0,0,2.23,1.47,4.07,4.07,0,0,0,4.16-1.93A4.37,4.37,0,0,0,122.7,90,11.54,11.54,0,0,0,122.24,88.79Z"/><path class="cls-5" d="M86.18,113.65s.37.14,1,.35a7.25,7.25,0,0,0,2.85.36,4.55,4.55,0,0,0,3.47-2.07,2.84,2.84,0,0,0,.4-2.27,1.27,1.27,0,0,0-.72-.84,1,1,0,0,0-1,.14,1,1,0,0,0-.16,1.05,1.67,1.67,0,0,0,.81.83,4.15,4.15,0,0,0,2.37.34A7.16,7.16,0,0,0,99,109.68a19.75,19.75,0,0,0,2-2.13,5.67,5.67,0,0,1,.73-.8,4.13,4.13,0,0,1-.57.93A17.1,17.1,0,0,1,99.2,110,7.47,7.47,0,0,1,95.26,112a4.61,4.61,0,0,1-2.68-.37,2.06,2.06,0,0,1-1-1.1A1.51,1.51,0,0,1,91.8,109a1.47,1.47,0,0,1,1.6-.26,1.83,1.83,0,0,1,1,1.17,3.34,3.34,0,0,1-.48,2.68,4.87,4.87,0,0,1-3.85,2.17,6.64,6.64,0,0,1-3-.53A2.71,2.71,0,0,1,86.18,113.65Z"/><path class="cls-5" d="M102.24,105.16s-.43,0-1.2.09a26.18,26.18,0,0,0-3.22.57,11.88,11.88,0,0,1-4.92.25A8.35,8.35,0,0,1,87.72,103a7,7,0,0,1-1.19-5.88,5.49,5.49,0,0,1,1.3-2.36,5.89,5.89,0,0,1,1.93-1.32,5.22,5.22,0,0,1,3.31-.28,3.75,3.75,0,0,1,.85.33c.18.11.27.17.26.18s-.41-.17-1.15-.31a5.28,5.28,0,0,0-3.12.42A5.17,5.17,0,0,0,87,97.23a6.58,6.58,0,0,0,1.15,5.45A8,8,0,0,0,93,105.6a12,12,0,0,0,4.76-.14A20.41,20.41,0,0,1,101,105,3.25,3.25,0,0,1,102.24,105.16Z"/><path class="cls-5" d="M109.66,100.05A5.83,5.83,0,0,0,112,98.66a4.73,4.73,0,0,0,1.22-2.59,4.6,4.6,0,0,0-1-3.32,5.07,5.07,0,0,0-2.94-1.87,5.9,5.9,0,0,0-2.91.17A9.75,9.75,0,0,0,104,92.36s.13-.25.5-.59a6,6,0,0,1,4.93-1.36,5.43,5.43,0,0,1,3.27,2,5,5,0,0,1,1,3.69,4.88,4.88,0,0,1-1.44,2.79,4.29,4.29,0,0,1-1.83,1A1.58,1.58,0,0,1,109.66,100.05Z"/><path class="cls-5" d="M137.49,120.56c-.06-.07.64-.64,1.58-1.7a5.63,5.63,0,0,0,1.23-2.08,4.62,4.62,0,0,0-.18-2.89c-.34-1-.84-2-1.17-2.87a5.65,5.65,0,0,1-.38-2.57,3.27,3.27,0,0,1,.62-1.65c.27-.32.48-.43.5-.41a4,4,0,0,0-.76,2.09,5.83,5.83,0,0,0,.47,2.38c.34.87.85,1.79,1.21,2.86a4.91,4.91,0,0,1,.15,3.2,5.66,5.66,0,0,1-1.42,2.19A6.83,6.83,0,0,1,137.49,120.56Z"/><path class="cls-9" d="M193.92,204l-34.58-.47L144,163.67c-3.55-6-9.66-8.78-18.06-9.8l-2.61,2a12.36,12.36,0,0,1-14.3.4l-3.54-2.38s-9.62.51-16.68,6.27h-.08a22,22,0,0,0-7.4,11.07c-1.39,4.54-5.37,19.91-8.3,31.35a14.69,14.69,0,0,0,9.6,17.57l9.55,3.16-4.69,14.22,57.06-.76-7.91-32.16.93-2.34c1.47,3,3.79,7.55,5.27,10.49a16,16,0,0,0,15.24,8.76l37.27-3.3ZM92.12,205l3.07-11.37c1.23,4.17,3.44,11.74,3.12,11.18l-.81,2.45Z"/><path class="cls-21" d="M120.32,228.87a83.48,83.48,0,0,0,7.65,4.64c3.35,1.59,3.51,1.3,3.64.88.35-1.13-5.79-3-4.21-3.38s7.21,3.19,7.52,2c.42-1.55-6-3.43-6.58-3.62s-.24-1,.23-.77c.68.29,7.88,3.21,8.3,1.69.23-.84-1.34-1.08-1.34-1.08s-6.95-2.24-6.73-2.95,4.36.46,5.72.95,2.14.05,1.88-.72c-.18-.52-4.32-2.14-5.68-2.59s-5.11-1.65-2.74-2.55,3.85-2.47,4-3.16-.83-1.08-1.38-.53a9.35,9.35,0,0,1-2.18,1.34,6.15,6.15,0,0,1-2,.58c-.59.07-1.11.12-1.59.15l-5,.38-2.54,6.65Z"/><path class="cls-5" d="M82.29,220s.06,0,.16,0l.46.14,1.78.59,6.72,2.29,23.84,8.28-.29.13c1.77-4.46,3.71-9.37,5.76-14.53l.13.32-14.71-6.16L92,205.18l-.2-.08.05-.22c1.9-7.07,3.35-13.79,4.73-19.8.33-1.5.66-3,1-4.38a36.65,36.65,0,0,0,.8-4.11,21.23,21.23,0,0,0-.53-7.37,10.94,10.94,0,0,0-3-5.15,7.83,7.83,0,0,0-4-2,6.77,6.77,0,0,0-2.82.08c-.63.16-.93.32-1,.29a4.81,4.81,0,0,1,.93-.38,6.55,6.55,0,0,1,2.87-.16,8,8,0,0,1,4.12,2,11.2,11.2,0,0,1,3.14,5.25,21.43,21.43,0,0,1,.59,7.5,35.25,35.25,0,0,1-.78,4.16c-.31,1.42-.63,2.88-1,4.39-1.35,6-2.77,12.73-4.67,19.84l-.14-.3,14.12,5.91,14.71,6.18.23.09-.09.23c-2.07,5.16-4,10.07-5.8,14.52l-.08.2-.21-.07-23.78-8.46-6.67-2.41-1.76-.65-.45-.18C82.34,220,82.29,220,82.29,220Z"/><path class="cls-5" d="M135,170.83a23.6,23.6,0,0,0,.9,4.85c.44,1.46,1.13,3.15,1.91,5a32.31,32.31,0,0,1,2.08,6.32,18.45,18.45,0,0,1,0,6.67,35.32,35.32,0,0,1-1.37,5.25c-.51,1.46-1,2.62-1.3,3.41a5.56,5.56,0,0,1-.57,1.21,7.66,7.66,0,0,1,.38-1.28c.27-.82.68-2,1.14-3.45a38.67,38.67,0,0,0,1.25-5.22,18.9,18.9,0,0,0,0-6.49,34.59,34.59,0,0,0-2-6.24,48.49,48.49,0,0,1-1.83-5.1,15.52,15.52,0,0,1-.6-3.61A4.67,4.67,0,0,1,135,170.83Z"/><path class="cls-5" d="M159.34,203.56a11.67,11.67,0,0,1-2.05,2.78,16.94,16.94,0,0,1-2.37,2.49c-.16-.11.74-1.39,2-2.83A11.21,11.21,0,0,1,159.34,203.56Z"/><path class="cls-5" d="M92.12,205a14,14,0,0,0-3.16.78,5.12,5.12,0,0,0-1.8,1.32c-.37.44-.51.79-.59.76s0-.42.29-1a4.23,4.23,0,0,1,1.88-1.59A4.18,4.18,0,0,1,92.12,205Z"/><path class="cls-5" d="M96.27,156c0,.09-1.19.62-3.09,1.67a31,31,0,0,0-6.78,4.92,19.62,19.62,0,0,0-4.61,6.92c-.76,2-.94,3.35-1,3.33a3,3,0,0,1,.07-.94,14.94,14.94,0,0,1,.63-2.52A18.42,18.42,0,0,1,86,162.18a27.49,27.49,0,0,1,7-4.88,23.92,23.92,0,0,1,2.36-1A3.85,3.85,0,0,1,96.27,156Z"/><path class="cls-5" d="M114,163.26a5.11,5.11,0,0,1-2,.11,11.13,11.13,0,0,1-4.71-1.53,11.3,11.3,0,0,1-3.6-3.39,4.91,4.91,0,0,1-.88-1.86c.08,0,.42.66,1.17,1.64a12.85,12.85,0,0,0,3.58,3.16A12.62,12.62,0,0,0,112,163C113.18,163.2,114,163.17,114,163.26Z"/><path class="cls-5" d="M128,156a7,7,0,0,1-2.23,3.17,6.81,6.81,0,0,1-3.36,1.92c-.07-.14,1.48-.9,3-2.31S127.9,155.94,128,156Z"/><path class="cls-15" d="M98.11,179.24s4.69,20.7,4.62,22.73a49.55,49.55,0,0,1-1.36,6.86l-3.87-1.62.81-2.45L95,193.05Z"/><g class="cls-14"><path d="M140.27,191.45l5.22,17.88a19.91,19.91,0,0,0,2.71,6.39c2.77,3.79,11,4.36,15.62,5.29l-6.75.6a16.32,16.32,0,0,1-13.76-8l-5.72-11.37Z"/></g><path class="cls-2" d="M118.81,171.65a22,22,0,0,1-.44-4.72,21.85,21.85,0,0,1,.08-4.73,21.16,21.16,0,0,1,.44,4.71A22,22,0,0,1,118.81,171.65Z"/><path class="cls-2" d="M122.61,169.91a31.54,31.54,0,0,1-2.24-3.81,33.47,33.47,0,0,1-2.17-3.85,20.61,20.61,0,0,1,4.41,7.66Z"/><path class="cls-21" d="M195.22,216.76l1,.11a99.8,99.8,0,0,0,10.95.63c4.54-.19,4.54-.61,4.44-1.13-.27-1.42-8,0-6.5-1.24s9.64-.69,9.3-2.16c-.44-1.92-8.52-.24-9.21-.14s-.82-.91-.19-1c.9-.07,10.38-1.05,10-2.94-.23-1.05-2.07-.4-2.07-.4s-8.82,1.57-9,.67,5-2,6.75-2.26,2.35-1.17,1.62-1.85c-.5-.47-5.9.16-7.64.44s-6.48,1.16-4.44-1.18,2.76-4.89,2.48-5.7-1.52-.69-1.8.23a11.62,11.62,0,0,1-1.59,2.7,7.44,7.44,0,0,1-1.79,1.75c-.6.42-1.14.77-1.63,1.07l-1.8,1.13Z"/><path class="cls-5" d="M116.71,236.69s-4.17,24.77,8.34,31.74S163.9,283.2,163.9,283.2L161,372.6h21.73l7.88-96.83a10.67,10.67,0,0,0-3.54-8.8l-41.72-30.29Z"/><path class="cls-5" d="M87.78,236.69s-5.27,22.53,7.25,29.5,35.34,16,35.34,16l-.51,90.4H155l5.37-96.83a10.64,10.64,0,0,0-3.53-8.8L121,236.69Z"/><path class="cls-8" d="M159.34,295.85a4.18,4.18,0,0,1,0-.78c0-.55.08-1.29.14-2.21.13-1.93.34-4.71.5-8.15a80.18,80.18,0,0,0-.19-12.06,12.89,12.89,0,0,0-2.23-6.56,38,38,0,0,0-5.16-5.59c-7.86-7-15.48-12.71-20.93-16.92l-6.46-5-1.73-1.38a4.83,4.83,0,0,1-.58-.51,3.73,3.73,0,0,1,.64.42l1.8,1.31,6.55,4.87c5.52,4.13,13.17,9.83,21.06,16.82A37.63,37.63,0,0,1,158,265.8a9.84,9.84,0,0,1,1.65,3.32,20.83,20.83,0,0,1,.65,3.48,77.17,77.17,0,0,1,.07,12.13c-.2,3.45-.47,6.22-.66,8.14l-.24,2.21A4.16,4.16,0,0,1,159.34,295.85Z"/><path class="cls-8" d="M106.26,236.64a2.16,2.16,0,0,1-.11.76,9.47,9.47,0,0,1-.71,1.93,10.35,10.35,0,0,1-4.8,4.75,9.41,9.41,0,0,1-6.74.43,8.52,8.52,0,0,1-1.88-.85c-.41-.26-.62-.44-.6-.47a26.22,26.22,0,0,0,2.58,1,9.64,9.64,0,0,0,6.42-.54,10.64,10.64,0,0,0,4.69-4.45C105.94,237.68,106.16,236.62,106.26,236.64Z"/><path class="cls-8" d="M136.41,273.77a24.64,24.64,0,0,1-2.62,4.37,25.26,25.26,0,0,1-3.06,4.08,25.1,25.1,0,0,1,2.63-4.37A25.58,25.58,0,0,1,136.41,273.77Z"/><path class="cls-8" d="M138.68,278.5a17.93,17.93,0,0,1-3.69,2.17,17.33,17.33,0,0,1-3.92,1.7,17.93,17.93,0,0,1,3.69-2.17A17.33,17.33,0,0,1,138.68,278.5Z"/><path class="cls-8" d="M172.69,277s0-.1.11-.26l.12.11a39.66,39.66,0,0,1-3.29,3.18,22.12,22.12,0,0,1-3.79,3,23.19,23.19,0,0,1,3.44-3.42,39.66,39.66,0,0,1,3.53-2.91l.12.11C172.79,277,172.71,277.06,172.69,277Z"/><path class="cls-8" d="M175.28,281.42a19,19,0,0,1-4.21,1.41,18.67,18.67,0,0,1-4.34.9,18.73,18.73,0,0,1,4.21-1.4A19,19,0,0,1,175.28,281.42Z"/><polygon class="cls-8" points="199.69 196.23 202.12 221.45 214.42 221.45 217.36 196.23 199.69 196.23"/><path class="cls-5" d="M199.69,193a5.27,5.27,0,0,0-1.15,3.33h20a3.71,3.71,0,0,0-1.15-3.33Z"/><polygon class="cls-5" points="201.97 190.66 201.29 193.15 216.37 193.26 215.38 190.63 201.97 190.66"/><path class="cls-9" d="M199.44,202.54c0,.24,1.46,12.7,1.46,12.7h15l1.43-12.7Z"/><path class="cls-8" d="M115.83,278.76c7.77-.25,4.11-11.65,3.92-24-.12-7.77-5.29-15.4-10.92-20.75a26.49,26.49,0,0,0-9.9-5.53,61.44,61.44,0,0,0-30-1.92S66.61,280.31,115.83,278.76Z"/></g><g id="Puzzle"><path class="cls-9" d="M325.68,59.12a7.74,7.74,0,0,1,3.89.85,4.36,4.36,0,0,0,1.76.44l1.58,0v-20a3,3,0,0,0-3-3H310.34V36.06a4.14,4.14,0,0,1,.42-1.76,8,8,0,0,0,.69-4.9,8.3,8.3,0,0,0-7.1-6.65c-8.58-1.26-9.07,3.28-9.07,8.05a7.83,7.83,0,0,0,.7,3.25,4,4,0,0,1,.36,1.64v1.68H277.27a3,3,0,0,0-3,3V93.1a2.45,2.45,0,0,0,2.46,2.44h53.75a2.45,2.45,0,0,0,2.45-2.44V74h-2.17a3.89,3.89,0,0,0-1.47.29,8.13,8.13,0,0,1-11.17-7.84A7.85,7.85,0,0,1,325.68,59.12Z"/><g class="cls-17"><path d="M325.68,59.12a7.74,7.74,0,0,1,3.89.85,4.36,4.36,0,0,0,1.76.44l1.58,0v-20a3,3,0,0,0-3-3H310.34V36.06a4.14,4.14,0,0,1,.42-1.76,8,8,0,0,0,.69-4.9,8.33,8.33,0,0,0-7.27-6.67c-9.61-1.07-8.9,3.3-8.9,8.07a7.83,7.83,0,0,0,.7,3.25,4,4,0,0,1,.36,1.64v1.68H277.27a3,3,0,0,0-3,3V93.1a2.45,2.45,0,0,0,2.46,2.44h53.75a2.45,2.45,0,0,0,2.45-2.44V74h-2.17a3.89,3.89,0,0,0-1.47.29,8.13,8.13,0,0,1-11.17-7.84A7.85,7.85,0,0,1,325.68,59.12Z"/></g><path class="cls-9" d="M322.29,59.12a7.78,7.78,0,0,1,3.9.85,4.32,4.32,0,0,0,1.76.44l1.58,0v-20a3,3,0,0,0-3-3H307V36.06a4,4,0,0,1,.42-1.76,8.13,8.13,0,1,0-15.48-3.5,8,8,0,0,0,.69,3.25,4,4,0,0,1,.37,1.64v1.68H273.88a3,3,0,0,0-3,3V93.1a2.45,2.45,0,0,0,2.45,2.44h53.75a2.45,2.45,0,0,0,2.46-2.44V74h-2.18a3.84,3.84,0,0,0-1.46.29,8.13,8.13,0,0,1-11.17-7.84A7.84,7.84,0,0,1,322.29,59.12Z"/><path class="cls-5" d="M335.2,74.17V93.24a3,3,0,0,0,3,3h53a2.46,2.46,0,0,0,2.46-2.46V40.05a2.46,2.46,0,0,0-2.46-2.45H372.1v2.17a3.89,3.89,0,0,0,.29,1.47,8.26,8.26,0,0,1,.59,3,8.14,8.14,0,0,1-16.27.57,8,8,0,0,1,.75-4,4.09,4.09,0,0,0,.4-1.72V37.6H338.22a3,3,0,0,0-3,3V74.17Z"/><path class="cls-8" d="M351,44.84a8,8,0,0,1,.74-4,4.09,4.09,0,0,0,.4-1.72V37.6H332.46a3,3,0,0,0-3,3V60.17h-1.33a4.18,4.18,0,0,1-1.77-.42,8,8,0,0,0-4.93-.69,8.14,8.14,0,0,0,1.41,16.16,8,8,0,0,0,3.28-.69,4,4,0,0,1,1.64-.36h1.7V93.24a3,3,0,0,0,3,3h53.05A2.46,2.46,0,0,0,388,93.8V40.05a2.46,2.46,0,0,0-2.46-2.45H366.34v2.17a3.89,3.89,0,0,0,.29,1.47,8.06,8.06,0,0,1,.59,3,8.14,8.14,0,0,1-16.26.57Z"/></g><g id="Floor"><path class="cls-5" d="M626.21,382.14c0,.15-140.19.26-313.09.26S0,382.29,0,382.14s140.16-.26,313.12-.26S626.21,382,626.21,382.14Z"/></g><g id="Plant"><path class="cls-9" d="M611.07,356a15.89,15.89,0,0,1,9.84-1.19,8.06,8.06,0,0,1,4.86,2.17c1.22,1.34,1.45,3.7.05,4.85a4.69,4.69,0,0,1-3.06.78c-2.6,0-5.49-.49-7.57,1.07-1.18.9-2,2.38-3.39,2.82a3.34,3.34,0,0,1-3.68-1.64,5.73,5.73,0,0,1-.42-4.23A6.46,6.46,0,0,1,611.07,356Z"/><path class="cls-9" d="M604.22,342.71c1.83,2.62,5.38,1.75,7,.16s2.35-3.91,3-6.12c1.45-5,2.92-10.32,1.84-15.45a8.58,8.58,0,0,0-2-4.2,4.47,4.47,0,0,0-4.25-1.42c-1.79.48-2.91,2.23-3.71,3.91a36.79,36.79,0,0,0-3.64,15.8c0,2.55.29,5.22,1.73,7.32"/><path class="cls-9" d="M599.19,346.46a9.48,9.48,0,0,0,1.48-8.75,16.86,16.86,0,0,0-5.18-7.52,28,28,0,0,0-9.29-5.47A9.67,9.67,0,0,0,582,324a4.36,4.36,0,0,0-3.5,2.12c-1,1.86,0,4.12,1,6a69.47,69.47,0,0,0,6.1,9.29c1.82,2.35,3.92,4.68,6.7,5.74s5.68.94,7.16-1"/><path class="cls-5" d="M604.09,382.14a5.19,5.19,0,0,0,.17-1.18c.08-.87.19-1.95.31-3.25s.35-3,.73-4.75a37.06,37.06,0,0,1,1.73-5.61,20.78,20.78,0,0,1,2.87-5.08,10.62,10.62,0,0,1,3.62-3,10.15,10.15,0,0,1,3.05-.95,6.23,6.23,0,0,0,1.18-.17,5,5,0,0,0-1.2,0,9.26,9.26,0,0,0-3.18.83,10.61,10.61,0,0,0-3.82,3,19.79,19.79,0,0,0-3,5.18,33.5,33.5,0,0,0-1.72,5.7,40.68,40.68,0,0,0-.63,4.81c-.1,1.38-.14,2.49-.16,3.26A5.9,5.9,0,0,0,604.09,382.14Z"/><path class="cls-5" d="M604.32,379.65a3.93,3.93,0,0,0,0-.55c0-.42,0-.94,0-1.58,0-1.37,0-3.34.07-5.79.13-4.89.55-10.15,1.36-17.56.77-7,1.8-15.09,2.89-20.37.24-1.2.47-2.28.69-3.23s.4-1.76.57-2.42l.37-1.54a1.81,1.81,0,0,0,.09-.54,3,3,0,0,0-.19.52c-.12.39-.27.89-.45,1.51s-.42,1.46-.65,2.41-.51,2-.77,3.22a178.34,178.34,0,0,0-3,18.89c-.81,7.44-1.18,14.2-1.21,19.1,0,2.45,0,4.44.08,5.81,0,.64.07,1.16.1,1.57A2.22,2.22,0,0,0,604.32,379.65Z"/><path class="cls-5" d="M604.35,366.6a11,11,0,0,0,0-1.65c-.06-1.06-.21-2.59-.51-4.46a56,56,0,0,0-1.45-6.5,53.12,53.12,0,0,0-2.71-7.69,40.92,40.92,0,0,0-8-12.42,20.68,20.68,0,0,0-1.87-1.75c-.29-.24-.55-.48-.8-.68l-.73-.5a10.43,10.43,0,0,0-1.39-.89,48.47,48.47,0,0,1,4.54,4.06,43.13,43.13,0,0,1,7.79,12.38,61.9,61.9,0,0,1,2.73,7.62c.71,2.38,1.18,4.58,1.54,6.43s.54,3.37.66,4.42A11.87,11.87,0,0,0,604.35,366.6Z"/></g></g></svg>