<svg xmlns="http://www.w3.org/2000/svg" viewBox="0 0 391.63 360.86"><defs><style>.cls-1{fill:#e0e0e0;}.cls-2{fill:#ebebeb;}.cls-3{fill:#fff;}.cls-4{fill:#fafafa;}.cls-5{fill:#e8505b;}.cls-6{fill:#263238;}.cls-7{fill:#455a64;}.cls-8{fill:#ffbe9d;}.cls-9{opacity:0.1;}.cls-10{fill:#eb996e;}.cls-11{opacity:0.3;}</style></defs><g id="Capa_2" data-name="Capa 2"><g id="Background_Complete" data-name="Background Complete"><path class="cls-1" d="M20.39,181.47a10.2,10.2,0,0,0-5.55,10.45,33.54,33.54,0,0,1,12.67-2.72"/><path class="cls-2" d="M17.63,183.48c-2,1.9,2.35-3.1,4.14-3.66a10.92,10.92,0,0,1,5.55.23c8.39,1.82,17,3.74,24.16,8.51,7.44,5,12.62,12.56,17.62,20A10.5,10.5,0,0,1,71.18,213c.2,1.64-.61,3.54-2.2,4a5.42,5.42,0,0,1-2.4-.06l-11.75-2.12c-5.36-1-10.95-2-15.25-5.35-4.94-3.82-7.38-10-9.59-15.81-1.69-4.47-6-6.81-8.48-10.93C21.51,182.73,19.78,181.47,17.63,183.48Z"/><path class="cls-1" d="M91.83,228.71a6.36,6.36,0,0,1-.8-.37l-2.24-1.14c-1.93-1-4.73-2.47-8.12-4.39a125.43,125.43,0,0,1-11.59-7.34c-2.1-1.5-4.24-3.18-6.36-5s-4.17-3.9-6.49-5.74a28.39,28.39,0,0,0-3.6-2.47,23.69,23.69,0,0,0-3.87-1.7c-1.32-.47-2.64-.9-3.88-1.47a14.57,14.57,0,0,1-3.39-2.15,28.25,28.25,0,0,1-4.78-5.6c-1.3-1.89-2.44-3.7-3.63-5.23a17.67,17.67,0,0,0-6.94-5.82,12.72,12.72,0,0,0-3.25-.81,7.28,7.28,0,0,1,.88,0,9.94,9.94,0,0,1,2.45.6,17.57,17.57,0,0,1,7.15,5.78c1.23,1.54,2.39,3.34,3.7,5.22a27.57,27.57,0,0,0,4.73,5.47,13.87,13.87,0,0,0,3.29,2.07c1.21.55,2.51,1,3.84,1.44a24.15,24.15,0,0,1,4,1.73,28.72,28.72,0,0,1,3.67,2.51c2.34,1.86,4.41,3.92,6.5,5.77s4.22,3.52,6.3,5c4.16,3,8.13,5.43,11.49,7.4S87,226,88.89,227l2.19,1.23A5.38,5.38,0,0,1,91.83,228.71Z"/><path class="cls-1" d="M175.48,116.65s.29,0,.87,0l2.55,0,9.93-.06-.13.12c0-17.94-.07-53.84-.13-95.13V7.26l.26.26L103,7.36l.1-.1c0,2.71,0,4.82,0,6.27,0,.69,0,1.24,0,1.62s0,.55,0,.55,0-.18,0-.55,0-.93,0-1.62c0-1.45,0-3.56,0-6.27v-.1h.1L188.83,7h.25v.25c0,4.64,0,9.41,0,14.26C189,62.81,189,98.71,189,116.65v.13h-.12l-9.93,0-2.55,0Z"/><path class="cls-1" d="M190.82,109.65s.29,0,.86,0l2.56,0,9.92-.06-.12.13c0-18-.08-53.84-.14-95.14,0-4.84,0-9.62,0-14.25l.25.26L118.37.36l.1-.1c0,2.71,0,4.81,0,6.26,0,.7,0,1.24,0,1.63s0,.55,0,.55,0-.19,0-.55,0-.93,0-1.63c0-1.45,0-3.55,0-6.26V.16h.1L204.16,0h.26V14.51c-.06,41.3-.11,77.19-.13,95.14v.12h-.13l-9.92-.06-2.56,0Z"/><path class="cls-1" d="M377.12,28.67H311.44a14.52,14.52,0,0,0-14.52,14.51V71.7a14.52,14.52,0,0,0,14.52,14.51h1.8v11.3l11.3-11.3h52.58A14.51,14.51,0,0,0,391.63,71.7V43.18A14.51,14.51,0,0,0,377.12,28.67Z"/><circle class="cls-3" cx="329.4" cy="59.37" r="3.22"/><path class="cls-4" d="M329.4,63.09a3.73,3.73,0,1,1,3.73-3.72A3.73,3.73,0,0,1,329.4,63.09Zm0-6.45a2.73,2.73,0,1,0,2.73,2.73A2.72,2.72,0,0,0,329.4,56.64Z"/><circle class="cls-3" cx="344.28" cy="59.22" r="3.22"/><path class="cls-4" d="M344.28,62.94A3.72,3.72,0,1,1,348,59.22,3.73,3.73,0,0,1,344.28,62.94Zm0-6.44A2.72,2.72,0,1,0,347,59.22,2.72,2.72,0,0,0,344.28,56.5Z"/><circle class="cls-3" cx="359.15" cy="59.22" r="3.22"/><path class="cls-4" d="M359.15,62.94a3.72,3.72,0,1,1,3.72-3.72A3.73,3.73,0,0,1,359.15,62.94Zm0-6.44a2.72,2.72,0,1,0,2.72,2.72A2.73,2.73,0,0,0,359.15,56.5Z"/></g><g id="Plants"><path class="cls-5" d="M48.28,128.13c3.31,4.15,8.92,6.63,8.3,9.93-.55,2.94-3.17,11.83-2.93,14.81.31,3.88,3.88,6.57,7.16,8.66s6.92,4.55,7.59,8.38c.58,3.31-1.31,6.7-.67,10,.82,4.18,5.21,6.5,9.14,8.13q10.08,4.19,20.46,7.55A20.77,20.77,0,0,0,91,176c-2.54-2.25-5.69-3.92-7.49-6.79-2.15-3.43-1.9-7.76-2.18-11.79s-1.6-8.6-5.3-10.23c-2.06-.91-4.64-.79-6.26-2.35-2-1.93-1.39-5.2-2-7.91-.84-3.78-4.25-6.57-7.94-7.78s-7.65-1.1-11.53-1"/><path class="cls-5" d="M107.72,204.87c-4.6-7.46-2.68-16.44,1.17-24.33s10.26-14.16,16.74-20.07,14.47-12.2,23.36-11.38c-5.1,2.57-7.2,8.69-8.28,14.31s-1.77,11.68-5.53,16c-1.9,2.16-4.59,3.93-5.18,6.74-.53,2.55.88,5.24.2,7.75-1.09,4.08-6.75,5.23-8.51,9.07-.85,1.85-.67,4.14-1.86,5.79-1.51,2.1-4.73,2.28-7,1.1s-3.9-3.35-5.42-5.44"/><path class="cls-6" d="M109.43,225.94a31.16,31.16,0,0,1-2.32-4.15c-1.34-2.76-3-6.88-4.87-12-1-2.57-2-5.38-3.16-8.37a89.66,89.66,0,0,0-4.15-9.35,22.67,22.67,0,0,0-3.07-4.52A25.44,25.44,0,0,0,87.37,184c-1.64-1.07-3.38-2.08-5-3.29a17.93,17.93,0,0,1-4.42-4.4A11.93,11.93,0,0,1,76,170.36c-.15-2.05,0-4.06-.19-6A11.49,11.49,0,0,0,74.22,159a6.11,6.11,0,0,0-1.94-1.85,12.21,12.21,0,0,0-2.45-1.09c-1.68-.59-3.48-1.08-4.8-2.34A6.46,6.46,0,0,1,63.34,149c0-1.63.18-3.17.13-4.64a12,12,0,0,0-.88-4.11,17.5,17.5,0,0,0-4.15-6,33.1,33.1,0,0,0-4.35-3.44c-1.26-.85-2.27-1.48-3-1.91l-.77-.49a2.34,2.34,0,0,1-.26-.19,1.27,1.27,0,0,1,.29.14l.79.45c.7.4,1.73,1,3,1.83a32.83,32.83,0,0,1,4.43,3.4,17.61,17.61,0,0,1,4.29,6,12.34,12.34,0,0,1,.94,4.23c.06,1.52-.13,3.07-.09,4.66a6,6,0,0,0,1.57,4.4c1.2,1.15,2.93,1.63,4.63,2.21a13.14,13.14,0,0,1,2.56,1.13,6.54,6.54,0,0,1,2.09,2,11.86,11.86,0,0,1,1.72,5.59c.16,2,.05,4,.2,6a11.37,11.37,0,0,0,1.8,5.7,17.75,17.75,0,0,0,4.29,4.27c1.63,1.19,3.36,2.2,5,3.29a25.64,25.64,0,0,1,4.57,3.62,23.13,23.13,0,0,1,3.13,4.65,86,86,0,0,1,4.13,9.42c1.16,3,2.17,5.82,3.1,8.39,1.86,5.14,3.44,9.27,4.71,12.05.66,1.37,1.16,2.45,1.57,3.14l.44.81A1.29,1.29,0,0,1,109.43,225.94Z"/><path class="cls-6" d="M148.77,149a4.42,4.42,0,0,1-.78.43c-.53.26-1.29.66-2.24,1.23a33.22,33.22,0,0,0-7.29,5.88,32.88,32.88,0,0,0-3.93,5.13,35.11,35.11,0,0,0-1.72,3.17c-.53,1.12-1,2.3-1.64,3.48a17.08,17.08,0,0,1-2.21,3.45,11,11,0,0,1-3.4,2.6,33.26,33.26,0,0,0-3.78,2.12,6.34,6.34,0,0,0-2.46,3.46c-.84,2.85-.38,5.94-1.35,8.75s-2.8,5-4,7.25a18.36,18.36,0,0,0-2.14,7,26.89,26.89,0,0,0,.13,6.45,56,56,0,0,0,2.23,9.13c.33,1,.59,1.84.78,2.44a7.74,7.74,0,0,1,.25.86.71.71,0,0,1-.1-.2l-.25-.63c-.2-.54-.5-1.36-.87-2.41a51.38,51.38,0,0,1-2.4-9.14,26.93,26.93,0,0,1-.2-6.54,18.83,18.83,0,0,1,2.15-7.2c1.26-2.34,3.06-4.51,4-7.18s.47-5.72,1.34-8.74a6.88,6.88,0,0,1,2.66-3.73,32,32,0,0,1,3.84-2.15,10.48,10.48,0,0,0,3.26-2.48,15.88,15.88,0,0,0,2.16-3.34c.6-1.16,1.12-2.33,1.66-3.46a35.87,35.87,0,0,1,1.76-3.2,33.49,33.49,0,0,1,4-5.16,32,32,0,0,1,7.45-5.79,21.86,21.86,0,0,1,2.3-1.15A7.59,7.59,0,0,1,148.77,149Z"/></g><g id="Character"><path class="cls-6" d="M260.67,184.14c9.38-.81,18.92-1.62,28.24-.5s18.58,4.47,23.63,10.31c4.25,4.91,5.09,11,5.81,16.75l6.18,49.64c.52,4.22,1,8.59-.86,12.59-4.12,8.75-19.3,12.88-31.38,10.15a37.24,37.24,0,0,1-25.15-19.46c-4.32-8.7-4.86-18.12-5.37-27.36L259,186l1.22-.8"/><polygon class="cls-6" points="0 269.93 2.91 280.17 280.79 360.86 376.38 297.78 376.38 289.18 0 269.93"/><polygon class="cls-7" points="99.69 223.63 376.38 289.18 280.79 351.55 0 269.93 99.69 223.63"/><polygon class="cls-6" points="245.67 279.91 192.75 305.49 95.72 279.03 143.35 253.01 245.67 279.91"/><polygon class="cls-7" points="187.31 278.83 201.37 283.47 214.37 276.4 192.72 269.45 180.08 276 187.31 278.83"/><path class="cls-6" d="M83.38,207.58C83.82,209.35,95.72,279,95.72,279l97,26.46L180,231Z"/><path class="cls-7" d="M185.69,264.34c.14,0,1.83,9.17,3.78,20.53s3.42,20.6,3.28,20.62S190.91,296.32,189,285,185.54,264.36,185.69,264.34Z"/><path class="cls-7" d="M140.66,254.7c1.18,3,0,6.34-2.61,7.36s-5.71-.64-6.89-3.68,0-6.34,2.61-7.36S139.48,251.65,140.66,254.7Z"/><path class="cls-8" d="M180,231c4.32-5,6.83-39,6.83-39l32,3.6h0s-4.6,49.81-19.23,55.79l-14.63,6"/><path class="cls-5" d="M285.08,241.62s14.17,15.87,13.31,29.08l-25.13-5.95L283,241.62"/><path class="cls-5" d="M305.26,197.21c-.61-27.79-11.59-41.39-12.05-43.15a43.31,43.31,0,0,0-32-14.06l-29.83.48a69.43,69.43,0,0,0-22.09,6.42l-.74.22v.15c-8.43,4.41-17.5,11.27-18.93,22.84l-3.6,22.53,20.73,1h0c-2.11,7.54-4.44,8.51-2,16l7.9,13.11c0,10.45-.7,4.12-3.91,26.79l80.13,19c4.64-4.58,1.11-17-11.3-39.57-1.85-3.38,7.76-37.38,7.76-37.38l17.93,6.28"/><path class="cls-6" d="M211.47,185.06a9.89,9.89,0,0,1-.72,1.42c-.49.89-1.22,2.18-2.06,3.79-1.65,3.21-3.94,7.86-4.16,13.41a16.73,16.73,0,0,0,1.38,7.55,24.38,24.38,0,0,0,3.39,5.36c1.14,1.41,2.14,2.49,2.82,3.25a8.28,8.28,0,0,1,1,1.22A10.45,10.45,0,0,1,212,220c-.73-.71-1.78-1.76-3-3.16a23.85,23.85,0,0,1-3.54-5.39,17,17,0,0,1-1.46-7.77,25.32,25.32,0,0,1,1.61-7.73,44.84,44.84,0,0,1,2.74-5.83c.89-1.6,1.67-2.86,2.21-3.72A9.94,9.94,0,0,1,211.47,185.06Z"/><g class="cls-9"><path d="M278.42,191.07s-13.06,28.79-1.67,47.61l5.33-2-4.47-7.8a8.71,8.71,0,0,1-.15-3.62c.66-4.1,1.93-10.79,3.63-17.53Z"/></g><path class="cls-6" d="M256.61,87.15c6.44,5.62,9.31,14.46,9.52,23s-.54,18.23-.34,27.14l13.06-.26c8.63.26,18.41-.65,26.67-1.29a8,8,0,0,0,4-1c1.9-1.29,2.32-3.86,2.58-6.14.41-3.59.81-7.3-.23-10.76s-3.88-6.65-7.49-6.91c-1.27-.09-2.6.17-3.78-.3a4.74,4.74,0,0,1-2.54-3.49c-.34-1.46-.29-3-.51-4.46a12.47,12.47,0,0,0-8.17-9.75c-2.67-.91-5.91-1-7.67-3.24-2.14-2.69-.73-6.58-.62-10a12.47,12.47,0,0,0-20.2-10.2"/><path class="cls-8" d="M246.51,156.36h0a15.3,15.3,0,0,1-15.28-14.65c-.28-6.57-.51-12.81-.51-12.81s-12.54-1.17-13.46-13.58-.53-41.06-.53-41.06h0A43.24,43.24,0,0,1,260.44,77l1.93,1.31-.57,62.86A15.29,15.29,0,0,1,246.51,156.36Z"/><path class="cls-6" d="M222.23,97.8a1.81,1.81,0,1,0-2.55,0A1.8,1.8,0,0,0,222.23,97.8Z"/><path class="cls-6" d="M217.81,94c.21.2,1.37-.81,3.08-.92s3,.69,3.18.46-.13-.48-.69-.86a4.25,4.25,0,0,0-5,.37C217.87,93.51,217.71,93.91,217.81,94Z"/><path class="cls-6" d="M237.6,95.06a1.81,1.81,0,1,0,2.52.44A1.81,1.81,0,0,0,237.6,95.06Z"/><path class="cls-6" d="M236.48,94.38c.2.21,1.37-.81,3.08-.92s3,.69,3.18.46-.13-.48-.7-.86a4.25,4.25,0,0,0-5,.37C236.54,93.89,236.38,94.29,236.48,94.38Z"/><path class="cls-6" d="M230.41,107.67a8.56,8.56,0,0,0-2.81-.41c-.45,0-.8-.1-.85-.34a2.45,2.45,0,0,1,.24-1.3c.37-1.16.75-2.33,1.14-3.56,1.56-5.07,2.62-9.24,2.36-9.32s-1.73,4-3.29,9c-.37,1.24-.72,2.42-1.07,3.58a2.93,2.93,0,0,0-.13,1.88,1.2,1.2,0,0,0,.82.67,3.06,3.06,0,0,0,.77,0A8.24,8.24,0,0,0,230.41,107.67Z"/><path class="cls-3" d="M236.08,109.22c1.72-1.17-4.75,2.91-8.24,3a4.74,4.74,0,0,0,5.7,1.53C237.17,112.12,236.08,109.22,236.08,109.22Z"/><path class="cls-10" d="M230.69,128.72a28.89,28.89,0,0,0,15.91-5.6s-3.28,9.18-15.74,8.82Z"/><path class="cls-6" d="M261.53,103.9c-4.5,3.62-9.93-5.75-12.34-11.63S246,79.91,245.68,73.5c-.12-2.1-.13-4.4,1.08-6s1.74.28,3.27-1.24c2.65-2.62.13-2.63,2.78-2.31,4.53.55,14.4,8.4,15.23,13.15s.16,9.63-.51,14.41c-.31,2.18-.61,4.36-.92,6.55a10.85,10.85,0,0,1-1.29,4.42c-.84,1.28-2.47,2.11-3.79,1.47"/><path class="cls-8" d="M261.68,93.68a1.88,1.88,0,0,1,1.8-1.88c2.31-.06,6.1.86,6.46,7.26.51,9.13-8.28,6.85-8.31,6.59S261.66,97.23,261.68,93.68Z"/><path class="cls-10" d="M263.64,102.06s.17.1.45.21a1.54,1.54,0,0,0,1.19,0c.94-.41,1.67-2,1.62-3.63a5.24,5.24,0,0,0-.57-2.26,1.84,1.84,0,0,0-1.27-1.15.8.8,0,0,0-.91.48c-.11.27,0,.45-.09.46s-.2-.14-.15-.52a1,1,0,0,1,.33-.59,1.18,1.18,0,0,1,.86-.28,2.26,2.26,0,0,1,1.75,1.32,5.49,5.49,0,0,1,.69,2.52c0,1.84-.8,3.62-2.1,4.07a1.68,1.68,0,0,1-1.47-.16C263.67,102.28,263.61,102.08,263.64,102.06Z"/><path class="cls-6" d="M246.71,67.56a29.25,29.25,0,0,1-17.39,18.58,2.3,2.3,0,0,1-2.16,0c-.76-.6-.46-1.86.17-2.59s1.54-1.24,2-2.09l-4.65,2.63a7.44,7.44,0,0,1-2.4,1,2.53,2.53,0,0,1-2.38-.75,1.55,1.55,0,0,1,.32-2.27c-1.05,1.72-3.75,1.88-5.29.59a5.47,5.47,0,0,1-1.46-5.54,11.31,11.31,0,0,1,3.26-5c6.44-6.26,15.78-8.53,24.73-9.14a28.7,28.7,0,0,1,8.28.36c2.7.6,6.87.38,11.74,5.71"/><path class="cls-6" d="M224.73,89.33c-.09.29-1.73-.08-3.74,0s-3.63.45-3.74.17,1.48-1.17,3.72-1.21S224.85,89.08,224.73,89.33Z"/><path class="cls-6" d="M243,89.54c-.1.28-1.68-.07-3.62-.16s-3.54.07-3.61-.22,1.54-.93,3.67-.82S243.11,89.28,243,89.54Z"/><path class="cls-7" d="M266.91,84.18a22.38,22.38,0,0,1,.7-2.56,10.63,10.63,0,0,0-4-11c-1.27-1-2.22-1.37-2.17-1.53s1.11,0,2.59.93a10,10,0,0,1,4.25,11.8C267.75,83.45,267,84.25,266.91,84.18Z"/><path class="cls-8" d="M278.42,191.07l7.11,44.33-57.32,21.41,9.27,19.12,60.33-18.85a20.45,20.45,0,0,0,14.05-23.16l-7.7-42.85Z"/><path class="cls-8" d="M228.55,256.68s-10.67-3.4-15.78-4.71c-2-.51-10.54,4-16.43,7.74,0,0-8.13,4.82-7.47,6.3.72,1.64,3.72,1.3,8.49-.94,0,0-1.66,4.83,1.61,4.73,0,0-1.62,5.23,1.44,5.77s3.79-6.13,6.49-6.49,8.3-.72,8.3-.72,4.66,7.71,8.26,8.25,14.36-.68,14.36-.68Z"/><path class="cls-10" d="M207,258.8a24.38,24.38,0,0,1-4.06,2.86,23.48,23.48,0,0,1-4.33,2.42,24.38,24.38,0,0,1,4.06-2.86A22.79,22.79,0,0,1,207,258.8Z"/><path class="cls-10" d="M207.87,261.77a30.25,30.25,0,0,1-4.92,2.56,29.48,29.48,0,0,1-5.13,2.08,29.34,29.34,0,0,1,4.92-2.56A29.48,29.48,0,0,1,207.87,261.77Z"/><path class="cls-10" d="M206.22,269a23.89,23.89,0,0,1-6.92.95,11.75,11.75,0,0,1,3.42-.74A12,12,0,0,1,206.22,269Z"/></g><g id="Document"><rect class="cls-4" x="89.1" y="14.92" width="85.79" height="109.39"/><path class="cls-6" d="M174.89,124.31s0-.18,0-.53,0-.87,0-1.53c0-1.36,0-3.36,0-6,0-5.2,0-12.78-.07-22.4,0-19.22-.06-46.54-.11-79l.23.23-85.78,0h0l.26-.26c0,40.55,0,78.2,0,109.39l-.21-.22,62.25.11,17.38.06,4.58,0,1.58,0-1.54,0-4.54,0-17.33,0-62.38.11h-.22v-.21c0-31.19,0-68.84,0-109.39v-.26h.27l85.78,0h.24v.23c0,32.51-.09,59.88-.12,79.13,0,9.6,0,17.17-.06,22.35,0,2.57,0,4.55,0,5.9,0,.66,0,1.16,0,1.51S174.89,124.31,174.89,124.31Z"/><path class="cls-6" d="M163.83,33.06c0,.29-7.23.52-16.16.52s-16.17-.23-16.17-.52,7.24-.52,16.17-.52S163.83,32.77,163.83,33.06Z"/><path class="cls-6" d="M163.83,39.38c0,.29-7.23.52-16.16.52s-16.17-.23-16.17-.52,7.24-.52,16.17-.52S163.83,39.1,163.83,39.38Z"/><path class="cls-6" d="M163.83,46.65c0,.28-7.23.52-16.16.52s-16.17-.24-16.17-.52,7.24-.52,16.17-.52S163.83,46.36,163.83,46.65Z"/><path class="cls-6" d="M126,61.89c0,.29-6.4.52-14.29.52s-14.29-.23-14.29-.52,6.4-.52,14.29-.52S126,61.6,126,61.89Z"/><path class="cls-6" d="M126,68.22c0,.28-6.4.52-14.29.52s-14.29-.24-14.29-.52,6.4-.52,14.29-.52S126,67.93,126,68.22Z"/><path class="cls-6" d="M126,75.48c0,.29-6.4.52-14.29.52s-14.29-.23-14.29-.52,6.4-.52,14.29-.52S126,75.19,126,75.48Z"/><path class="cls-6" d="M126,83.08c0,.29-6.4.52-14.29.52s-14.29-.23-14.29-.52,6.4-.52,14.29-.52S126,82.79,126,83.08Z"/><path class="cls-6" d="M126,89.41c0,.28-6.4.52-14.29.52s-14.29-.24-14.29-.52,6.4-.53,14.29-.53S126,89.12,126,89.41Z"/><path class="cls-6" d="M126,96.67c0,.29-6.4.52-14.29.52S97.43,97,97.43,96.67s6.4-.52,14.29-.52S126,96.38,126,96.67Z"/><path class="cls-6" d="M126,104.27c0,.29-6.4.52-14.29.52s-14.29-.23-14.29-.52,6.4-.52,14.29-.52S126,104,126,104.27Z"/><path class="cls-6" d="M126,110.6c0,.28-6.4.52-14.29.52s-14.29-.24-14.29-.52,6.4-.53,14.29-.53S126,110.31,126,110.6Z"/><path class="cls-6" d="M165.47,110.6c0,.28-7,.52-15.56.52s-15.55-.24-15.55-.52,7-.53,15.55-.53S165.47,110.31,165.47,110.6Z"/><path class="cls-6" d="M164.85,89.41c0,.28-7,.52-15.55.52s-15.56-.24-15.56-.52,7-.53,15.56-.53S164.85,89.12,164.85,89.41Z"/><path class="cls-6" d="M164.85,95.73c0,.29-7,.52-15.55.52s-15.56-.23-15.56-.52,7-.52,15.56-.52S164.85,95.44,164.85,95.73Z"/><path class="cls-6" d="M164.85,103c0,.28-7,.52-15.55.52s-15.56-.24-15.56-.52,7-.53,15.56-.53S164.85,102.71,164.85,103Z"/><rect class="cls-5" x="135.35" y="57.72" width="27.42" height="20.62"/><g class="cls-11"><polygon points="135.35 72.07 142.39 67.37 149.91 72.07 157.99 66.11 162.77 69.09 162.77 78.34 135.35 78.34 135.35 72.07"/></g><g class="cls-11"><path d="M152.6,63.64a2.47,2.47,0,1,1-2.47-2.46A2.48,2.48,0,0,1,152.6,63.64Z"/></g><path class="cls-6" d="M118.08,32.23l.2,4.2h-.51a4.9,4.9,0,0,0-.39-1.59,2.62,2.62,0,0,0-1.09-1.12,3.69,3.69,0,0,0-1.79-.37H112V47a3.63,3.63,0,0,0,.36,2.06,2,2,0,0,0,1.54.55h.62v.49h-7.58v-.49h.63a1.83,1.83,0,0,0,1.61-.68,4.07,4.07,0,0,0,.29-1.93V33.35H107.3a5.7,5.7,0,0,0-1.78.19,2.39,2.39,0,0,0-1.18,1,4.08,4.08,0,0,0-.58,1.93h-.5l.21-4.2Z"/></g></g></svg>